<?xml version="1.0" standalone="no"?>
<!DOCTYPE svg PUBLIC "-//W3C//DTD SVG 20010904//EN"
 "http://www.w3.org/TR/2001/REC-SVG-20010904/DTD/svg10.dtd">
<svg version="1.0" xmlns="http://www.w3.org/2000/svg"
 width="999.000000pt" height="999.000000pt" viewBox="0 0 999.000000 999.000000"
 preserveAspectRatio="xMidYMid meet">
<metadata>
Created by potrace 1.11, written by Peter Selinger 2001-2013
</metadata>
<g transform="translate(0.000000,999.000000) scale(0.100000,-0.100000)"
fill="#000000" stroke="none">
<path d="M1289 9903 c-144 -310 -183 -626 -113 -908 25 -102 73 -208 138 -308
l19 -28 -404 2 c-425 2 -746 21 -907 55 -17 3 -22 0 -22 -16 0 -24 7 -26 190
-45 308 -31 577 -39 877 -26 l281 13 69 -70 c165 -167 350 -247 641 -277 81
-9 169 -19 196 -23 l48 -7 -126 -109 c-134 -114 -383 -356 -481 -466 -65 -74
-382 -468 -439 -547 -21 -30 -46 -53 -55 -53 -17 0 -101 55 -101 66 0 3 8 4
18 3 34 -3 72 1 72 9 0 4 -33 27 -73 51 -131 80 -519 335 -657 432 -96 67
-341 251 -401 301 -26 21 -50 38 -53 38 -14 0 -4 -32 15 -48 12 -9 29 -24 38
-32 9 -9 36 -29 60 -45 24 -16 45 -35 48 -42 3 -7 10 -13 15 -13 9 0 82 -53
98 -70 3 -3 28 -20 55 -38 28 -17 44 -32 36 -32 -7 0 13 -14 45 -30 33 -17 64
-38 70 -45 6 -8 17 -15 23 -15 29 0 -5 -21 -59 -36 -55 -15 -80 -34 -45 -34
14 0 70 -29 108 -55 21 -15 16 -20 -31 -30 -18 -4 -31 -9 -29 -12 10 -9 88 18
84 30 -2 7 -27 26 -57 44 -32 20 -48 34 -39 37 8 2 36 11 63 20 l48 16 167
-108 c91 -60 228 -146 303 -193 l137 -84 -47 -5 -46 -5 44 -38 c25 -21 55 -40
67 -43 13 -4 23 -11 23 -17 0 -5 -18 -39 -40 -74 -120 -190 -274 -520 -340
-728 -11 -33 -115 -161 -142 -173 -4 -2 -17 16 -30 40 l-22 43 -10 -37 c-12
-46 -20 -48 -36 -8 -7 17 -15 29 -17 26 -2 -2 5 -23 17 -46 23 -45 36 -44 42
5 l3 30 22 -37 22 -38 -40 -84 c-38 -79 -42 -83 -62 -72 -87 46 -272 189 -342
263 -23 25 -33 31 -28 18 4 -11 15 -27 25 -36 10 -9 15 -19 12 -22 -4 -3 -13
0 -21 8 -17 17 -33 19 -33 5 0 -5 -4 -10 -10 -10 -11 0 -1 31 14 43 7 6 4 7
-6 3 -10 -3 -18 -2 -18 3 0 4 -7 8 -16 8 -15 0 -15 -1 0 -12 9 -7 16 -18 16
-25 0 -10 -3 -10 -14 -1 -10 8 -16 9 -21 1 -3 -5 1 -10 9 -10 9 0 16 -7 16
-15 0 -9 6 -12 15 -9 10 4 15 0 15 -15 0 -20 -1 -20 -21 -3 -44 36 -50 44 -43
66 6 21 6 21 -10 1 -12 -16 -16 -17 -17 -5 -1 8 0 20 1 25 1 6 -2 7 -6 3 -4
-4 -22 8 -41 27 -40 41 -43 42 -43 14 0 -23 45 -74 195 -222 55 -54 99 -103
97 -108 -1 -6 2 -8 8 -4 5 3 38 -18 72 -47 35 -29 79 -64 98 -78 51 -35 59
-49 49 -84 -16 -62 -25 -243 -13 -273 59 -144 58 -135 40 -246 -9 -56 -19
-124 -22 -152 -7 -77 -12 -729 -6 -740 4 -5 7 -17 7 -25 2 -47 20 -196 40
-340 38 -256 71 -413 134 -627 22 -77 41 -147 41 -156 0 -8 5 -17 11 -19 7 -2
12 -18 13 -35 0 -17 3 -29 5 -27 5 5 73 -165 74 -183 0 -7 4 -13 9 -13 5 0 6
-10 3 -22 -4 -17 -4 -19 3 -9 8 11 11 10 16 -6 4 -11 4 -29 0 -39 -4 -14 -3
-16 4 -5 8 11 11 9 17 -10 4 -13 23 -55 41 -93 19 -37 31 -73 27 -79 -4 -6 -1
-7 7 -2 10 6 12 4 7 -9 -4 -9 -3 -15 2 -12 4 3 14 -7 21 -22 52 -104 120 -205
120 -177 0 3 -18 40 -41 82 -55 105 -99 193 -111 223 -6 14 -17 38 -25 53 -8
15 -12 35 -9 43 3 8 2 13 -3 10 -7 -5 -70 164 -76 204 -1 8 -7 28 -14 44 -6
16 -13 40 -15 55 -2 14 -8 37 -13 51 -15 37 -73 339 -84 438 -22 194 -29 286
-35 474 -4 118 -3 198 2 198 5 0 7 21 5 47 -3 49 16 344 25 376 3 9 13 17 22
17 9 0 31 11 47 24 l30 24 11 -126 c7 -70 17 -162 24 -206 6 -43 9 -85 6 -93
-3 -8 -1 -11 4 -8 16 10 12 -11 -5 -25 -8 -7 -15 -25 -15 -41 0 -16 -4 -29
-10 -29 -5 0 -6 -8 -2 -17 15 -37 37 -63 54 -63 10 0 20 -10 22 -22 41 -189
40 -180 22 -190 -38 -21 -10 -128 49 -183 35 -34 90 -157 81 -181 -3 -7 0 -14
5 -16 5 -2 25 -40 43 -85 19 -45 59 -132 90 -193 32 -64 53 -118 50 -128 -5
-13 -4 -14 4 -3 12 17 15 9 37 -106 35 -184 112 -466 196 -713 27 -80 51 -152
53 -160 2 -8 22 -57 45 -109 22 -51 38 -98 34 -104 -4 -6 -1 -7 7 -2 10 6 12
4 6 -11 -4 -10 -4 -15 0 -11 5 4 22 -16 38 -46 40 -69 105 -157 117 -157 5 0
9 7 9 15 0 8 -4 15 -10 15 -10 0 -39 51 -45 78 -2 10 -11 44 -19 77 -36 135
-69 596 -43 612 5 3 7 1 3 -5 -3 -5 -3 -12 1 -14 5 -2 32 -28 61 -59 40 -42
53 -64 56 -91 2 -19 6 -39 9 -44 3 -5 42 -230 87 -499 44 -270 87 -524 96
-565 15 -78 17 -86 59 -315 39 -211 137 -660 177 -810 11 -44 21 -86 21 -92 0
-7 9 -13 20 -13 14 0 17 4 12 18 -7 18 -133 556 -160 682 -57 273 -132 672
-185 985 -76 450 -101 590 -105 608 -3 9 -8 27 -11 40 -4 14 32 -15 102 -84
60 -58 149 -141 199 -184 49 -44 83 -76 74 -73 -10 4 -2 -21 26 -77 38 -76 53
-116 101 -279 14 -46 19 -55 25 -40 6 16 8 14 8 -8 1 -17 7 -28 15 -28 9 0 16
-12 18 -27 2 -20 8 -28 21 -26 15 1 18 -5 15 -34 -2 -31 1 -36 37 -53 l40 -18
-30 -2 c-19 -2 -23 -4 -12 -7 12 -3 16 -10 13 -20 -5 -13 -4 -14 9 -3 12 10
15 10 15 -3 0 -9 -5 -19 -10 -22 -5 -3 -10 -14 -9 -23 0 -11 3 -12 6 -4 2 6
11 12 18 12 24 0 30 -178 27 -763 -3 -407 -1 -567 7 -567 8 0 11 178 11 623 0
405 4 617 10 607 9 -13 10 -13 10 1 0 8 -5 20 -12 27 -9 9 -9 15 0 24 8 8 12
50 12 125 0 66 4 113 10 113 5 0 27 -26 48 -58 21 -31 68 -100 104 -153 35
-53 70 -111 78 -128 14 -35 4 -223 -46 -836 -27 -336 -27 -345 -16 -345 12 0
75 777 85 1037 2 51 6 96 10 99 4 4 7 1 7 -6 0 -7 11 -28 25 -46 14 -18 25
-35 25 -38 0 -2 16 -32 36 -66 l37 -61 -12 -74 c-7 -41 -10 -84 -6 -95 4 -11
2 -20 -4 -20 -13 0 -15 -66 -2 -74 5 -3 11 8 15 26 9 44 17 30 9 -16 -4 -27
-12 -40 -29 -47 -31 -11 -30 -17 1 -14 17 2 25 -2 25 -11 0 -9 -4 -12 -10 -9
-5 3 -10 2 -10 -3 0 -18 30 -22 31 -4 0 14 2 14 7 2 11 -24 42 -24 42 0 0 22
-15 27 -23 8 -3 -7 -6 -3 -6 9 -1 12 -7 24 -13 26 -8 4 -7 6 4 6 9 1 19 -5 21
-11 4 -10 8 -10 15 0 12 17 22 -5 23 -51 0 -27 2 -29 9 -12 5 11 9 16 10 10 1
-5 6 1 10 15 l8 25 1 -27 c1 -21 5 -25 22 -21 14 4 19 12 16 24 -3 11 -1 17 4
13 5 -3 9 -15 10 -27 0 -21 1 -21 8 -2 8 19 8 19 20 -3 6 -12 16 -22 22 -22 6
0 7 5 4 10 -3 6 -4 10 -1 10 10 0 48 -82 41 -88 -3 -4 -11 0 -16 8 -9 13 -10
13 -6 0 6 -24 32 -18 31 7 0 13 3 23 7 23 4 0 7 -24 6 -52 -2 -42 1 -53 15
-56 12 -2 18 5 21 30 l4 33 1 -32 c2 -32 22 -48 22 -17 0 14 2 14 15 0 8 -8
15 -23 15 -33 0 -13 2 -15 9 -5 6 10 10 10 20 -1 6 -8 10 -21 9 -28 -2 -9 8
-15 25 -17 16 -2 27 -9 27 -19 0 -8 8 -17 19 -20 13 -3 17 -11 14 -24 -4 -15
0 -22 16 -26 25 -6 27 -18 4 -27 -13 -5 -14 -9 -3 -19 10 -9 13 -9 17 1 7 19
33 14 33 -7 0 -20 32 -37 50 -26 5 3 10 2 10 -3 0 -5 -12 -14 -26 -20 -25 -12
-24 -38 2 -28 9 3 14 -1 14 -14 0 -31 20 -34 21 -3 1 22 4 17 15 -22 7 -27 12
-56 9 -62 -3 -10 69 -13 341 -13 l346 0 -7 132 c-4 73 -9 147 -11 163 -2 17 1
45 7 62 l11 33 71 -93 c39 -50 116 -138 171 -194 l99 -103 206 0 206 0 -35 22
c-168 103 -237 157 -382 300 -140 139 -236 247 -282 320 -17 27 -17 27 25 72
23 25 44 46 48 46 3 0 21 -25 39 -55 116 -194 361 -426 651 -617 l134 -88 359
0 c198 0 358 3 356 8 -2 4 -82 126 -179 272 -96 146 -206 312 -244 370 -37 58
-80 123 -94 145 -15 22 -30 46 -35 53 -5 9 20 12 117 12 137 0 153 -7 120 -56
-36 -56 34 -215 118 -267 74 -45 113 -45 264 -2 29 9 86 -33 108 -77 10 -20
26 -91 37 -158 10 -66 23 -127 29 -134 39 -47 213 -65 277 -29 18 10 71 65
120 123 117 139 157 181 150 155 -3 -11 -14 -91 -26 -178 -13 -105 -27 -171
-40 -197 l-20 -40 23 0 c23 0 24 5 35 94 18 141 32 163 25 36 -5 -87 -3 -108
9 -118 12 -9 81 -12 284 -10 l269 3 -3 26 c-2 21 8 35 55 75 97 83 87 79 128
47 l36 -28 -68 -62 -68 -62 165 -1 165 0 35 33 c449 415 653 576 995 787 39
24 93 58 120 75 28 18 113 65 190 106 l141 73 24 -19 c92 -70 173 -199 237
-374 38 -107 123 -405 123 -434 0 -11 16 -71 36 -133 l37 -114 153 0 154 0 0
974 0 975 -27 4 c-26 4 -27 5 -6 12 12 4 19 13 16 20 -2 8 -5 29 -6 47 -1 18
-8 34 -14 34 -7 1 -20 2 -27 3 -11 1 -14 12 -13 41 2 25 -2 40 -9 40 -6 0 -23
18 -38 40 -14 22 -22 40 -17 40 5 0 4 13 -2 30 -8 20 -20 31 -39 35 -16 4 -25
11 -22 17 4 6 7 24 6 40 0 15 4 26 9 23 5 -4 9 -14 9 -23 0 -9 4 -23 9 -31 8
-12 12 -11 27 4 17 17 17 19 -11 41 -17 13 -45 27 -62 30 -18 3 -33 10 -33 14
0 14 27 19 39 7 6 -6 11 -7 11 -1 0 15 -21 33 -34 30 -6 -2 -8 -1 -3 1 10 6 9
43 -2 43 -5 0 -14 -7 -21 -15 -7 -8 -18 -15 -24 -14 -7 0 -7 2 1 6 9 3 9 10
-3 28 -18 28 -53 38 -73 22 -11 -10 -13 -9 -9 3 2 8 17 16 31 18 42 5 32 22
-13 22 -22 0 -40 5 -40 10 0 6 4 10 9 10 13 0 10 43 -4 53 -7 5 -6 10 3 15 9
6 7 13 -8 30 -11 11 -20 26 -20 32 0 14 -17 13 -23 -3 -2 -6 -8 -9 -12 -4 -5
4 -2 19 6 33 12 23 11 27 -4 39 -11 8 -15 19 -11 29 5 12 2 17 -7 15 -8 -2
-24 2 -36 9 -17 10 -28 10 -44 2 -11 -7 -23 -9 -27 -6 -3 3 0 6 6 6 22 0 12
18 -13 24 -28 7 -33 24 -10 32 27 11 16 24 -20 24 -27 0 -38 -6 -50 -28 -16
-27 -16 -27 -11 -2 3 14 6 28 6 33 0 4 7 7 15 7 8 0 15 5 15 11 0 8 14 10 40
6 22 -3 40 -1 40 4 0 5 -9 9 -20 9 -24 0 -27 32 -5 50 25 21 17 32 -20 28 -24
-3 -35 0 -35 9 0 7 -9 13 -21 13 -11 0 -17 -4 -14 -10 3 -5 -1 -10 -10 -10 -9
0 -14 4 -10 9 3 5 1 12 -5 16 -5 3 -10 -2 -10 -11 0 -10 -3 -14 -7 -11 -3 4
-12 2 -20 -4 -10 -9 -18 -8 -33 6 -19 17 -20 17 -20 -1 0 -14 -4 -12 -15 10
-9 16 -12 38 -9 49 6 20 7 20 18 -1 9 -17 14 -20 24 -10 9 9 12 9 12 0 0 -7
-5 -12 -11 -12 -5 0 -8 -4 -5 -9 3 -5 17 -8 31 -8 21 0 24 3 19 19 -5 17 -3
18 14 9 12 -6 23 -11 26 -11 10 0 6 49 -4 55 -5 3 -10 0 -10 -8 0 -15 -47 -17
-69 -3 -10 6 -12 6 -7 -2 10 -16 -2 -15 -17 1 -7 6 -13 26 -14 42 l-2 30 14
-25 c8 -14 14 -19 15 -12 0 11 2 11 13 0 8 -7 16 -19 18 -25 2 -8 9 -9 17 -4
11 6 10 14 -2 42 -11 23 -14 26 -10 9 6 -22 5 -23 -9 -10 -9 8 -17 29 -19 45
-2 24 1 29 15 27 10 -2 17 3 17 14 0 11 -5 14 -16 10 -10 -4 -25 1 -37 11 -19
18 -19 17 -13 -23 10 -59 -18 -73 -37 -19 -2 6 -10 5 -19 -3 -14 -11 -17 -8
-27 19 -6 18 -9 35 -6 37 3 3 5 0 5 -8 0 -10 3 -10 18 1 14 11 15 11 5 -1 -15
-16 -17 -40 -5 -40 5 0 14 10 20 23 10 21 11 21 11 1 1 -26 30 -67 31 -43 0
25 -21 79 -31 79 -5 0 -9 9 -9 21 0 11 -4 18 -10 14 -5 -3 -7 -12 -4 -19 4
-10 -2 -12 -20 -9 -14 3 -23 10 -20 15 4 6 0 14 -7 19 -11 7 -11 12 -2 26 6
10 16 17 22 15 6 -1 11 3 11 9 0 6 -9 9 -20 6 -21 -5 -27 12 -10 29 6 6 3 10
-9 10 -11 0 -17 -4 -15 -8 3 -4 2 -13 -2 -19 -4 -7 -11 -2 -19 13 -10 19 -10
27 2 46 7 12 9 22 4 22 -5 0 -11 -6 -14 -12 -3 -7 -21 21 -40 62 -19 41 -33
79 -29 84 3 5 9 1 13 -10 7 -18 8 -17 8 3 1 26 -18 41 -30 22 -5 -9 -12 1 -20
33 -7 26 -16 45 -19 43 -12 -7 -30 69 -23 95 5 24 5 25 -10 5 -15 -18 -17 -18
-18 -2 -1 9 -3 20 -4 25 -2 4 -6 17 -10 30 -4 12 -11 22 -15 22 -5 0 -11 13
-15 30 -4 16 -11 32 -16 35 -5 4 -9 15 -9 25 0 10 -4 20 -9 22 -14 5 -115 222
-113 243 2 16 0 17 -8 5 -8 -13 -10 -12 -10 3 0 10 -5 17 -11 15 -6 -2 -10 -8
-9 -13 2 -9 109 -238 131 -277 13 -26 11 -32 -6 -18 -9 7 -18 10 -22 7 -3 -4
-11 0 -17 7 -19 24 -54 29 -60 9 -4 -15 -5 -15 -3 2 1 11 12 21 27 25 16 4 21
8 13 13 -7 5 -21 3 -32 -3 -30 -16 -43 -12 -39 13 2 16 -3 23 -19 25 -13 2
-23 8 -23 14 0 5 -7 8 -14 5 -10 -4 -13 -1 -9 9 4 11 8 12 19 3 23 -19 25 -5
5 37 -17 34 -19 36 -23 16 -5 -36 -22 -27 -29 15 -3 21 -7 30 -8 21 -2 -28
-19 -21 -23 9 -3 27 -4 27 -9 -5 -4 -22 -1 -39 8 -47 20 -20 16 -33 -10 -31
-20 1 -22 5 -20 51 2 27 6 68 9 90 6 37 5 39 -9 20 -11 -14 -12 -22 -4 -27 9
-5 9 -10 -1 -20 -9 -9 -12 -8 -12 6 0 13 -5 16 -22 11 -20 -5 -21 -4 -5 5 9 6
17 18 17 25 0 19 -9 19 -30 0 -15 -14 -17 -12 -17 15 0 31 25 50 38 28 4 -7
11 -9 15 -6 3 4 0 13 -8 21 -12 12 -17 13 -33 1 -10 -8 -29 -14 -41 -14 -25 0
-41 16 -22 22 6 2 12 14 13 26 1 16 -4 22 -19 22 -16 0 -18 -3 -7 -9 19 -12 1
-20 -32 -14 -19 4 -27 11 -27 25 0 14 5 18 15 14 9 -3 15 0 15 9 0 8 -7 15
-15 15 -8 0 -15 9 -15 21 0 11 -5 17 -10 14 -11 -7 -8 -78 4 -107 6 -13 3 -15
-14 -11 -17 5 -20 11 -15 35 6 24 3 30 -14 35 -16 4 -20 12 -18 42 1 20 7 39
12 43 6 4 2 8 -8 8 -16 0 -17 9 -10 112 5 62 8 262 8 443 0 413 -14 510 -121
866 -81 271 -128 389 -246 624 -205 408 -473 780 -778 1083 -58 57 -127 122
-154 145 -28 23 20 -28 105 -113 159 -158 290 -310 415 -480 80 -109 211 -306
243 -365 11 -22 37 -67 56 -100 131 -223 292 -624 364 -910 80 -319 111 -802
76 -1195 -8 -91 -15 -168 -15 -171 0 -3 -11 -4 -24 -2 -17 4 -22 10 -19 24 3
10 0 19 -6 19 -6 0 -11 -17 -11 -37 0 -21 -5 -45 -10 -53 -7 -11 -8 -6 -4 18
6 29 4 32 -20 32 -30 0 -31 -3 -14 -30 16 -25 7 -33 -26 -24 -26 6 -26 7 -11
30 13 20 13 23 0 18 -8 -4 -15 -10 -15 -15 0 -11 -23 -7 -32 6 -4 6 -8 1 -8
-10 0 -17 -2 -17 -10 -5 -8 12 -10 10 -10 -10 0 -24 -1 -24 -21 8 l-22 33 18
181 c30 308 10 641 -60 963 -31 145 -76 317 -82 311 -2 -2 16 -104 41 -227 25
-123 52 -271 61 -329 22 -152 30 -456 16 -635 -11 -134 -37 -308 -40 -262 -2
28 -21 19 -22 -10 0 -16 -5 -37 -10 -48 -8 -17 -9 -15 -5 10 2 17 0 39 -4 50
-6 15 -9 7 -9 -28 -1 -27 -5 -46 -10 -42 -5 3 -8 20 -7 38 2 17 1 24 -1 14 -8
-33 -33 -73 -33 -54 0 10 -8 17 -20 17 -23 0 -26 -10 -8 -28 9 -9 8 -12 -5
-12 -9 0 -21 8 -26 19 -8 13 -18 17 -37 13 l-27 -5 28 -15 c21 -11 25 -16 14
-22 -24 -12 -89 -19 -89 -9 0 13 -21 11 -53 -6 -15 -8 -25 -10 -22 -5 3 5 -7
7 -22 6 -17 -2 -30 -12 -37 -27 -14 -33 -12 -32 -35 -24 -12 3 -21 14 -22 23
0 12 -3 11 -9 -5 -11 -26 -30 -31 -30 -7 0 8 4 12 10 9 6 -3 10 4 10 17 -1 22
-1 22 -15 4 -8 -11 -15 -26 -15 -33 0 -8 -8 -33 -19 -56 -10 -23 -21 -50 -24
-59 -8 -22 -47 -24 -47 -3 0 8 -9 19 -20 25 -11 6 -20 18 -21 28 0 14 -2 14
-6 2 -3 -8 -11 -19 -17 -23 -7 -5 -3 -6 8 -3 13 5 17 2 13 -8 -3 -8 -1 -17 6
-20 7 -3 2 -3 -10 0 -13 3 -23 1 -23 -5 0 -6 -15 -11 -33 -11 -21 0 -41 -8
-52 -20 -10 -12 -26 -19 -34 -17 -9 1 -24 -6 -33 -16 -20 -22 -42 -13 -35 14
3 10 1 22 -4 25 -5 3 -9 -2 -9 -11 0 -23 -20 -40 -63 -54 -20 -7 -37 -19 -37
-26 0 -8 -10 -15 -22 -17 -36 -5 -34 -28 4 -29 30 -1 31 -2 8 -8 -14 -4 -35
-4 -48 1 -37 13 -42 10 -42 -23 0 -17 4 -28 10 -24 6 3 10 -1 10 -9 0 -9 5
-16 12 -16 6 0 9 -2 7 -5 -3 -2 -15 -2 -27 2 -15 4 -22 13 -22 31 0 52 -8 14
-14 -67 -3 -47 -9 -87 -12 -90 -3 -3 -4 15 -3 41 3 47 0 53 -22 46 -7 -2 -7
-12 1 -30 13 -28 6 -78 -10 -78 -6 0 -10 7 -10 16 0 8 4 13 9 9 5 -3 9 5 7 17
-1 13 -6 24 -12 25 -5 1 -8 -5 -6 -13 2 -9 -1 -21 -7 -28 -6 -7 -8 -24 -5 -39
2 -15 0 -27 -5 -27 -4 0 -11 -24 -14 -52 -3 -29 -11 -82 -17 -118 -7 -36 -13
-74 -14 -85 -1 -11 -4 -24 -7 -30 -12 -20 -20 -67 -10 -61 5 4 12 2 16 -4 3
-5 -1 -10 -9 -10 -9 0 -16 -5 -16 -11 0 -5 4 -7 10 -4 13 8 13 -15 0 -35 -9
-13 -10 -13 -11 0 -1 8 -5 -15 -9 -52 -5 -53 -11 -71 -31 -88 -13 -12 -18 -19
-12 -15 7 3 22 1 32 -5 24 -12 17 -40 -10 -40 -29 0 -23 -28 8 -32 39 -4 42
-28 4 -28 -17 0 -31 -4 -31 -10 0 -5 5 -10 10 -10 20 0 9 -29 -12 -33 -21 -3
-20 -4 6 -12 21 -5 31 -4 34 3 2 7 11 12 20 12 12 0 10 -5 -8 -25 -13 -14 -31
-25 -39 -25 -10 0 -6 -7 12 -18 15 -9 30 -25 33 -35 3 -11 12 -16 20 -13 16 6
18 -12 4 -48 -5 -15 -17 -26 -27 -26 -17 1 -16 2 1 15 16 12 17 18 8 27 -10
10 -15 10 -22 -2 -7 -11 -12 -12 -21 -3 -9 9 -15 9 -25 -2 -18 -18 -18 -29 1
-21 12 4 39 -26 38 -44 0 -3 8 -4 18 -2 24 4 36 -18 15 -30 -14 -8 -14 -12 -2
-31 8 -12 17 -36 21 -54 6 -30 5 -32 -27 -35 l-33 -3 43 -24 c42 -24 56 -51
27 -51 -18 0 -20 -26 -2 -33 9 -4 9 -7 -1 -14 -7 -5 -13 -27 -15 -49 -2 -35 0
-39 21 -36 23 2 22 1 -6 -23 -30 -25 -48 -33 -38 -16 3 5 -1 12 -10 15 -24 9
-31 7 -14 -4 13 -9 13 -11 0 -20 -12 -8 -13 -10 -1 -10 23 0 -80 -70 -244
-165 -125 -73 -335 -168 -445 -201 l-45 -14 31 24 c26 21 134 165 134 179 0 3
26 47 59 98 77 124 216 392 286 554 236 541 336 1049 337 1720 1 219 -13 463
-32 605 -5 36 -10 93 -10 128 0 93 -37 311 -106 632 -19 91 -39 174 -43 185
-5 11 -37 106 -71 210 -34 105 -70 208 -81 230 -23 48 -23 47 52 -178 141
-419 203 -760 265 -1442 12 -139 6 -575 -11 -757 -20 -208 -13 -197 -95 -146
-25 15 -61 36 -80 47 -33 18 -219 148 -230 160 -3 4 -21 18 -40 32 -103 78
-284 276 -400 439 -73 102 -204 310 -240 380 l-22 43 138 -6 c156 -8 248 -22
425 -67 67 -17 127 -29 132 -27 19 6 -272 97 -360 112 -47 8 -146 15 -220 15
l-134 0 -45 98 c-66 138 -159 409 -209 607 -48 185 -56 202 -25 49 42 -204
107 -419 192 -633 27 -68 47 -125 46 -127 -2 -1 -26 -6 -53 -9 l-50 -7 -32 54
c-179 301 -362 744 -437 1058 -52 215 -50 202 -61 575 -4 116 -10 230 -14 255
-4 25 -5 -88 -3 -251 5 -309 -3 -451 -39 -702 -24 -166 -64 -376 -90 -474 -11
-40 -28 -128 -38 -195 l-18 -123 -31 100 c-56 184 -111 435 -141 640 -41 284
-46 358 -45 665 0 281 9 434 39 640 5 31 4 30 -10 -10 -42 -129 -67 -632 -46
-935 20 -282 70 -587 136 -830 48 -173 175 -561 220 -672 151 -366 374 -690
602 -876 35 -28 61 -53 58 -55 -7 -7 -138 81 -220 148 -231 189 -421 425 -580
719 -69 129 -161 340 -189 436 -9 33 -21 70 -27 83 -22 55 -82 322 -109 487
-44 268 -63 706 -41 954 13 143 50 373 81 505 23 94 25 132 4 66 -27 -87 -83
-366 -99 -500 -19 -158 -27 -464 -15 -635 24 -359 133 -866 246 -1149 l46
-115 -27 -93 c-44 -154 -94 -357 -115 -463 -40 -210 -45 -260 -44 -470 1 -187
4 -224 27 -335 14 -69 33 -143 42 -165 8 -22 13 -29 10 -15 -3 14 -17 81 -32
150 -25 115 -27 143 -28 360 0 204 3 252 23 365 31 168 149 635 162 635 3 0
18 -26 34 -58 54 -110 152 -264 246 -390 138 -186 304 -346 503 -486 l49 -34
-139 -6 c-165 -7 -397 -25 -436 -33 -15 -3 -26 -11 -24 -17 3 -7 41 -10 118
-9 l114 2 -118 -13 c-65 -7 -122 -17 -127 -22 -14 -14 -61 -136 -55 -142 3 -3
5 0 5 7 0 7 4 10 8 7 5 -3 5 -27 1 -53 -4 -26 -5 -65 -2 -86 l6 -37 21 24 c17
20 35 25 96 32 41 4 97 8 124 8 l49 1 12 -50 c7 -27 15 -61 19 -75 13 -53 22
-55 57 -15 37 42 103 77 128 67 31 -11 92 -64 107 -94 21 -41 14 -87 -17 -110
-32 -24 -129 -34 -181 -20 -48 13 -48 10 -4 -139 68 -229 111 -328 174 -399
22 -25 36 -47 31 -50 -5 -4 25 -12 67 -19 126 -23 356 -1 377 35 4 8 14 14 21
14 22 0 96 95 96 123 0 2 -26 -22 -58 -53 -32 -31 -72 -62 -90 -69 -17 -7 -29
-17 -26 -22 3 -5 -5 -9 -18 -9 -13 0 -54 -3 -91 -6 -71 -6 -290 7 -227 14 l35
4 -40 18 c-62 28 -108 79 -127 141 -36 114 -39 129 -32 163 3 20 5 38 4 42 -3
10 54 54 80 61 14 3 34 11 45 18 11 6 47 11 80 11 52 -1 61 -4 70 -23 5 -13
13 -23 17 -23 5 0 8 -9 8 -20 0 -11 9 -29 20 -40 11 -11 20 -17 20 -14 0 4 7
1 15 -6 9 -7 17 -11 19 -9 2 2 -3 34 -11 72 -19 86 -12 119 25 115 21 -2 30
-11 39 -41 7 -21 14 -58 15 -82 4 -53 23 -44 39 19 17 69 39 89 97 91 34 2 55
-2 63 -11 6 -8 17 -14 23 -14 18 0 46 -71 49 -126 2 -28 11 -61 20 -74 l16
-23 21 34 c45 72 109 217 126 284 19 73 26 279 12 343 l-7 32 56 0 56 0 -5
-151 -5 -150 63 107 c35 59 71 127 80 151 18 46 26 50 64 28 14 -8 35 -14 47
-15 22 0 21 2 -12 55 -29 44 -78 158 -101 233 -2 6 -17 12 -33 12 -24 0 -44
17 -118 96 -48 54 -97 106 -108 118 -44 45 -142 166 -175 215 -19 28 -40 57
-46 65 -7 7 -35 48 -64 92 -29 43 -61 92 -72 107 -11 16 -18 31 -15 33 3 3 22
-20 43 -51 97 -142 253 -313 389 -428 79 -67 259 -182 362 -232 l82 -40 0 -41
c1 -71 -47 -352 -84 -494 -76 -287 -167 -522 -321 -827 -121 -238 -162 -307
-262 -433 -116 -145 -179 -210 -208 -210 -12 0 -26 -5 -30 -11 -9 -15 20 -10
151 25 164 44 398 145 550 238 17 10 37 21 45 25 19 8 223 144 230 153 3 3 23
19 45 36 22 16 45 34 51 39 6 6 37 33 69 60 32 28 64 55 70 62 6 6 54 49 107
95 183 161 334 363 460 616 37 76 53 100 60 90 8 -10 9 -9 5 4 -3 9 -2 29 2
45 l8 28 6 -35 c3 -19 6 -44 6 -55 0 -11 5 -49 12 -85 16 -91 15 -101 -20
-177 -25 -53 -34 -64 -42 -53 -8 12 -9 10 -4 -6 13 -48 -210 -241 -265 -229
-23 5 -27 1 -37 -32 -16 -55 -32 -99 -64 -173 -40 -94 -66 -186 -78 -276 -6
-44 -14 -97 -17 -119 -12 -76 -11 -178 3 -243 27 -130 143 -350 227 -431 l36
-34 -53 -51 c-67 -66 -140 -147 -195 -216 l-44 -55 -71 2 -72 2 66 -17 c47
-13 79 -30 117 -61 55 -47 65 -62 32 -54 -11 3 -20 1 -20 -5 0 -6 17 -13 38
-17 46 -8 91 -43 94 -74 3 -22 -3 -25 -72 -41 -41 -9 -88 -24 -105 -33 -38
-21 -30 -21 26 -2 42 15 123 24 133 15 6 -7 8 -45 7 -111 -1 -48 -6 -63 -36
-103 -20 -25 -40 -46 -46 -46 -18 0 -29 48 -18 74 8 17 8 29 0 45 -17 31 -47
27 -60 -9 -7 -22 -16 -30 -34 -30 -50 0 -59 -54 -12 -66 13 -3 33 -3 46 1 24
8 39 -7 39 -41 0 -37 -106 -94 -173 -94 -54 0 -133 31 -149 58 -16 25 -16 25
-22 4 -9 -28 -47 -29 -71 -2 -15 17 -17 26 -8 58 14 50 15 95 3 87 -35 -22
-79 134 -59 208 13 47 44 112 68 142 8 11 1 7 -17 -9 -17 -16 -34 -37 -37 -46
-4 -13 -21 -16 -97 -15 -158 0 -459 -63 -536 -112 -13 -8 -30 -29 -37 -47 -17
-40 -39 -46 -160 -46 l-83 0 -31 64 c-17 36 -31 68 -31 73 0 4 -12 21 -26 36
-24 26 -25 29 -10 52 9 14 40 42 69 63 28 22 90 72 137 112 47 40 105 90 130
111 25 20 79 66 120 101 41 34 127 112 190 173 63 60 146 139 185 175 235 220
386 388 510 565 63 91 82 122 142 230 39 72 44 103 7 49 -199 -293 -375 -505
-595 -719 -244 -236 -405 -364 -629 -499 -25 -15 -83 -52 -130 -82 -47 -30
-96 -60 -110 -68 -14 -7 -54 -30 -90 -51 -109 -63 -291 -152 -360 -175 -103
-35 -193 -39 -385 -19 -395 42 -1007 167 -1285 264 -314 110 -541 291 -694
555 -58 99 -131 286 -163 413 -75 304 -268 835 -450 1237 -43 94 -71 171 -99
273 l-27 99 22 51 c39 90 187 466 247 627 31 85 62 160 68 166 11 11 128 37
246 54 30 5 76 12 101 15 l47 7 70 -118 c38 -66 84 -148 102 -184 39 -78 187
-302 277 -419 78 -101 81 -108 51 -114 -17 -3 -14 -5 12 -6 32 -2 40 -10 96
-89 34 -48 61 -88 60 -89 -1 -1 -101 -7 -221 -13 -402 -19 -764 -58 -791 -85
-9 -8 -20 -15 -26 -15 -7 0 -7 -4 0 -12 14 -18 -29 -118 -79 -185 -36 -48 -38
-53 -19 -53 12 0 34 7 50 15 34 18 28 24 100 -110 24 -44 47 -83 52 -86 5 -3
10 -10 10 -15 0 -5 4 -16 9 -24 7 -10 8 -3 4 25 -9 68 -18 185 -14 185 2 0 60
7 129 15 176 21 161 25 154 -44 -8 -71 3 -144 17 -119 15 27 74 58 109 58 24
0 42 -10 71 -38 45 -46 58 -85 38 -121 -13 -24 -21 -26 -88 -29 -41 -2 -87 2
-102 7 -25 9 -29 8 -29 -10 0 -58 108 -310 174 -406 20 -29 36 -56 36 -60 1
-10 50 -70 50 -61 0 4 -14 29 -31 57 -32 51 -58 163 -59 248 0 33 5 46 26 62
15 12 23 21 18 22 -5 0 7 6 26 12 24 9 37 9 42 2 5 -7 8 -7 8 0 0 6 14 16 31
22 35 14 61 3 77 -32 26 -55 35 -81 34 -87 -1 -5 4 -8 11 -8 8 0 20 -11 27
-25 19 -36 21 -26 5 20 -8 22 -14 65 -15 96 0 53 2 57 25 61 14 3 29 0 35 -7
10 -12 35 -114 32 -128 -2 -5 2 -6 6 -3 5 3 12 31 14 61 3 32 11 63 20 72 18
17 67 21 77 6 3 -5 14 -12 24 -16 26 -10 40 -53 46 -150 3 -48 11 -88 16 -90
17 -4 26 120 21 263 -6 145 -24 264 -56 374 l-19 68 22 -6 c12 -4 49 -13 82
-21 33 -9 76 -20 94 -25 19 -5 37 -8 39 -5 2 2 -30 48 -72 102 -83 108 -92
129 -48 108 37 -17 85 -28 78 -17 -4 7 -52 45 -126 100 -3 2 4 10 14 18 18 13
17 14 -21 14 l-41 0 -43 88 c-23 48 -53 107 -65 132 -99 202 -188 459 -227
657 -18 90 -31 163 -30 163 1 0 12 -19 24 -43 34 -67 112 -190 136 -215 13
-13 30 -37 39 -55 42 -82 226 -333 352 -479 152 -178 388 -419 542 -554 24
-21 -43 49 -150 156 -344 344 -551 600 -747 926 -85 140 -198 357 -252 484
-75 175 -192 530 -230 695 -5 22 -9 31 -10 20 -1 -26 39 -185 89 -350 37 -124
53 -187 120 -480 56 -239 124 -460 210 -674 41 -104 94 -225 111 -255 10 -17
8 -18 -13 -13 -12 4 -35 7 -51 7 -22 0 -34 10 -62 54 -19 30 -39 58 -45 61
-45 28 -420 657 -420 705 0 6 33 10 82 10 45 0 79 2 77 5 -3 2 -43 9 -88 14
-46 5 -89 15 -96 23 -22 21 -121 264 -174 425 -240 721 -283 1481 -126 2233 5
22 4 22 -4 5 -15 -35 -61 -272 -82 -425 -26 -188 -37 -649 -20 -847 6 -76 14
-174 16 -218 3 -44 10 -127 15 -185 18 -209 22 -368 11 -525 -11 -149 -46
-390 -74 -513 -13 -53 -14 -54 -66 -73 -56 -19 -84 -37 -41 -25 14 4 40 9 57
13 l33 6 -16 -54 c-57 -192 -181 -524 -261 -699 -14 -30 -34 -77 -45 -104 -10
-27 -27 -68 -38 -90 -64 -142 -108 -245 -113 -268 -4 -16 -14 -28 -23 -28 -8
0 -13 -4 -10 -8 3 -5 -8 -9 -24 -10 -34 -1 -47 13 -30 33 8 10 8 19 1 33 -6
11 -8 22 -6 26 3 3 0 2 -7 -3 -8 -8 -8 -14 2 -26 7 -8 10 -18 7 -21 -10 -11
-27 7 -28 29 -1 17 -3 15 -9 -8 -8 -30 -8 -30 -9 -3 0 15 -15 86 -32 159 -62
269 -99 615 -99 923 l0 193 30 38 c18 22 30 50 30 67 0 34 -26 88 -41 88 -12
0 -9 60 12 228 9 80 11 84 54 126 32 30 45 51 45 70 0 29 -27 86 -46 98 -20
13 63 378 148 658 39 128 122 358 167 464 12 27 20 50 18 52 -10 10 -124 -277
-192 -483 -52 -157 -128 -440 -155 -578 -20 -103 -13 -97 -78 -68 -31 14 -59
27 -61 29 -2 2 5 34 17 71 37 121 50 239 43 397 -1 11 -24 40 -52 66 l-51 47
24 39 c14 21 46 89 72 150 57 133 58 167 7 201 -53 36 -74 30 -116 -29 -42
-62 -64 -92 -123 -170 l-44 -57 -32 18 c-63 36 -190 74 -246 74 -58 0 -139
-29 -201 -73 -16 -12 -33 -20 -38 -18 -11 4 122 339 189 475 103 211 222 387
473 707 60 76 117 146 126 155 9 10 53 58 97 107 128 140 335 338 474 455 136
114 123 108 272 123 74 8 154 12 179 9 40 -6 43 -5 30 10 -7 10 -21 17 -30 18
-23 1 -134 62 -134 74 0 6 38 36 84 68 209 145 589 351 859 466 143 61 385
151 406 151 17 0 19 -62 2 -93 -55 -105 -372 -466 -472 -539 -52 -38 -27 -37
101 3 154 48 218 77 309 142 150 107 266 266 361 497 23 58 43 102 43 98 0 -4
21 -1 48 7 71 21 276 65 301 65 14 0 22 -8 27 -27 38 -176 100 -383 114 -383
6 0 10 -7 10 -15 0 -14 94 -210 139 -290 59 -104 262 -334 321 -364 14 -8 -11
24 -55 70 -44 46 -82 86 -85 89 -70 73 -178 236 -235 355 -168 355 -234 689
-227 1153 1 82 -1 142 -7 142 -27 0 -25 -434 3 -610 7 -47 13 -86 12 -86 -1
-1 -58 -14 -127 -28 -70 -15 -150 -32 -178 -40 -59 -15 -60 -13 -36 56 36 107
53 220 76 503 11 143 5 205 -21 205 -14 0 -19 -12 -24 -52 -8 -59 -43 -212
-56 -243 -5 -11 -14 -38 -21 -60 -45 -153 -239 -556 -239 -498 0 21 -32 252
-41 293 -36 175 -192 551 -232 558 -14 3 -10 -9 19 -58 46 -78 67 -128 116
-264 57 -162 68 -226 68 -397 0 -146 -1 -150 -22 -159 -13 -5 -81 -30 -153
-56 -239 -86 -532 -221 -743 -342 l-124 -71 -41 14 c-76 24 -219 37 -430 37
l-207 -1 -43 56 c-92 121 -137 189 -132 200 2 7 0 12 -6 10 -12 -3 -81 125
-126 233 -78 190 -113 388 -113 632 0 140 -2 168 -15 168 -22 0 -28 -59 -22
-234 12 -371 137 -701 380 -1006 92 -116 304 -311 435 -402 22 -15 22 -15 -20
-22 -91 -14 -308 -18 -414 -8 -219 22 -356 63 -499 151 -83 51 -195 153 -195
177 0 8 -6 14 -12 14 -7 0 -29 26 -50 58 -113 178 -161 346 -161 567 -1 137
13 227 53 371 28 99 94 260 126 309 16 24 15 25 -5 25 -17 0 -30 -17 -62 -87z
m2992 -333 c-23 -224 -46 -306 -156 -536 -95 -201 -183 -317 -317 -420 -58
-45 -190 -114 -218 -114 -8 0 -46 -11 -85 -25 -38 -13 -71 -25 -73 -25 -2 0
22 23 53 52 90 82 106 98 181 183 115 130 179 215 280 370 139 215 308 639
341 855 18 123 14 -146 -6 -340z m-1626 -931 c50 -17 94 -34 98 -38 5 -5 -40
-41 -100 -81 -59 -40 -117 -81 -129 -91 -11 -11 -25 -19 -31 -19 -27 0 -303
237 -303 260 0 3 84 4 187 2 177 -3 193 -5 278 -33z m-1000 -2156 c15 -20 11
-37 -30 -131 -21 -49 -34 -68 -38 -58 -12 31 -46 17 -83 -34 -20 -27 -38 -50
-40 -50 -12 0 -64 31 -64 38 1 13 84 138 135 201 45 57 52 62 79 57 16 -3 34
-14 41 -23z m-462 -173 c20 -6 55 -28 76 -48 63 -60 67 -151 16 -327 -49 -169
-139 -352 -203 -412 -15 -14 -19 -20 -9 -13 10 7 17 8 17 2 0 -15 -26 -33 -35
-24 -5 4 -5 2 -2 -4 4 -6 -2 -19 -13 -29 -19 -17 -28 -9 -12 11 4 5 -3 -1 -15
-12 -36 -36 -168 -114 -224 -133 -30 -10 -73 -21 -96 -24 -56 -7 -98 21 -136
88 -27 48 -28 54 -24 165 5 132 27 225 88 368 65 152 101 201 214 292 61 48
140 94 192 110 32 11 111 6 166 -10z m252 -130 c28 -21 79 -64 114 -96 63 -59
63 -59 68 -124 7 -82 -11 -229 -38 -314 -19 -64 -21 -66 -47 -60 -15 4 -37 13
-49 20 -32 20 -50 17 -88 -12 -39 -30 -52 -74 -35 -118 8 -21 7 -33 -2 -45
-10 -13 -10 -14 2 -4 11 10 17 10 31 -3 21 -19 10 -36 -30 -47 -45 -11 -76 3
-105 49 -58 92 -82 87 -214 -37 -122 -116 -215 -169 -309 -177 l-53 -5 60 -44
c63 -47 82 -77 29 -46 -67 40 -124 89 -124 108 0 17 7 20 47 21 34 1 72 14
142 50 176 89 303 230 379 420 25 61 54 128 65 150 48 94 71 261 47 340 -8 27
-15 50 -15 52 0 6 74 -40 125 -78z m3481 -136 c-3 -7 -1 -14 3 -16 4 -2 22
-46 41 -98 18 -52 64 -158 101 -235 37 -77 89 -187 117 -245 27 -58 76 -154
110 -215 l61 -109 -67 -17 c-37 -9 -111 -27 -165 -39 -54 -12 -96 -24 -93 -27
2 -3 47 4 98 16 91 20 239 44 243 39 1 -2 40 -62 88 -135 174 -267 283 -398
601 -726 127 -131 232 -242 233 -245 2 -5 -636 -8 -794 -3 -26 1 -51 20 -143
107 -61 59 -139 141 -173 183 -65 79 -68 82 -144 196 -53 80 -181 326 -238
460 -21 50 -42 95 -45 100 -3 6 -24 62 -45 126 l-39 117 12 88 c19 133 105
492 151 633 23 68 41 133 42 145 0 14 9 2 25 -33 14 -30 23 -60 20 -67z
m-4712 64 c7 -5 4 -8 -6 -8 -12 0 -18 7 -17 23 0 15 2 17 6 7 3 -8 11 -18 17
-22z m1340 -574 c140 -71 206 -119 206 -149 0 -24 -57 -75 -84 -75 -13 0 -35
9 -49 20 -14 11 -33 20 -44 20 -15 1 -13 4 10 21 50 38 36 61 -68 119 -73 40
-106 65 -98 74 15 14 60 4 127 -30z m11 -219 c30 -19 66 -37 80 -41 29 -7 28
-3 16 -109 -5 -44 -12 -102 -15 -129 -3 -27 -7 -50 -9 -53 -3 -2 -15 1 -28 6
-13 5 -51 19 -84 32 -33 12 -87 34 -120 49 -33 15 -70 30 -83 34 -12 4 -22 11
-22 15 0 4 21 27 46 51 25 25 68 75 96 113 28 37 55 67 60 67 5 0 33 -16 63
-35z m1059 -144 c17 -21 106 -202 106 -218 0 -6 11 -24 24 -40 25 -30 56 -86
56 -101 0 -5 -28 -14 -62 -20 -92 -15 -196 -39 -250 -55 -27 -8 -48 -12 -48
-9 0 4 16 68 36 142 45 174 67 261 84 334 l14 59 13 -39 c7 -21 19 -45 27 -53z
m-1909 -51 c31 -21 44 -37 41 -48 -2 -9 -10 -41 -16 -71 -7 -30 -28 -87 -46
-127 -38 -82 -40 -97 -19 -138 13 -24 14 -42 6 -100 -23 -166 -34 -418 -27
-636 3 -124 8 -238 11 -255 2 -16 9 -66 14 -110 6 -44 13 -102 17 -130 4 -34
3 -47 -4 -40 -32 32 -112 460 -143 770 -17 167 -14 490 6 675 20 189 33 289
41 302 3 5 21 -7 40 -26 19 -19 55 -49 79 -66z m159 -55 c-13 -36 -38 -93 -55
-126 -49 -99 -51 -107 -30 -128 19 -19 19 -20 0 -42 -10 -12 -19 -26 -19 -31
0 -18 -50 -7 -64 15 -13 19 -13 30 -1 79 7 31 22 70 33 85 11 15 34 57 52 93
44 89 68 120 90 120 18 0 18 -3 -6 -65z m4710 -92 c65 -133 208 -382 247 -432
11 -13 19 -28 19 -33 0 -28 -258 305 -369 478 -76 117 -76 124 -5 124 l41 0
67 -137z m-4284 102 c8 -1 26 -6 40 -12 14 -6 70 -29 125 -52 153 -63 213 -94
220 -114 16 -45 -5 -75 -118 -169 -61 -50 -184 -162 -272 -248 -230 -224 -336
-312 -372 -308 -24 3 -28 8 -31 36 -4 41 45 122 60 100 6 -10 8 -8 6 5 -4 23
390 410 409 403 8 -3 12 -2 9 3 -7 11 50 63 134 121 4 3 9 15 12 27 8 31 -23
56 -131 103 -115 50 -171 82 -171 97 0 15 20 23 45 16 11 -3 27 -7 35 -8z
m-264 -96 c6 -5 31 -2 59 7 46 16 49 16 89 -5 36 -19 169 -96 221 -127 16 -10
-8 -37 -215 -245 -127 -129 -243 -249 -257 -267 -14 -18 -28 -30 -31 -28 -12
12 -33 171 -37 286 -3 69 -8 139 -11 157 -3 23 3 46 21 80 14 26 25 53 25 58
0 6 13 32 29 56 26 42 31 46 62 41 19 -2 39 -8 45 -13z m1439 -74 l-14 -50 6
50 c6 51 14 77 20 60 1 -6 -4 -32 -12 -60z m-845 -382 c0 -192 4 -265 30 -518
19 -185 47 -338 101 -564 16 -68 27 -126 25 -129 -3 -2 -9 11 -14 29 -7 31 -9
32 -14 12 -3 -13 -2 -23 3 -23 5 0 9 -9 9 -20 0 -28 -18 -25 -26 5 -5 19 -13
25 -34 25 -16 0 -30 7 -34 15 -3 8 -1 15 4 15 6 0 10 -4 10 -10 0 -5 5 -10 10
-10 6 0 10 7 10 15 0 8 -8 15 -18 15 -10 0 -28 7 -40 16 -13 9 -29 14 -36 11
-7 -3 -13 1 -13 9 0 8 5 13 11 10 6 -2 18 -7 26 -10 11 -5 16 0 17 14 2 21
-13 28 -19 9 -3 -9 -10 -9 -26 0 -13 7 -33 10 -45 8 -17 -3 -15 -5 7 -6 22 -1
27 -4 19 -12 -16 -16 -53 -1 -53 22 0 13 7 19 23 19 20 1 20 2 4 11 -14 8 -22
6 -37 -11 -18 -20 -19 -20 -39 -4 -14 13 -17 21 -10 30 7 9 4 14 -11 19 -28 9
-15 25 21 25 16 0 29 4 29 10 0 5 -7 7 -15 4 -20 -8 -65 4 -65 16 0 6 10 10
23 11 13 0 16 3 8 6 -11 4 -8 10 10 24 13 10 18 19 12 19 -7 0 -21 -8 -30 -17
-10 -10 -29 -17 -43 -16 -14 1 -18 0 -7 -3 37 -11 14 -24 -44 -24 -54 0 -60
-2 -49 -15 10 -12 10 -15 -1 -16 -8 0 -29 -2 -46 -5 -18 -2 -33 1 -33 6 0 6
10 11 23 11 18 1 16 3 -8 9 l-30 8 30 2 c17 1 24 4 18 7 -7 2 -13 12 -13 21 0
12 -3 13 -12 4 -15 -15 -32 -16 -23 -2 3 6 2 10 -3 10 -6 0 -12 7 -15 14 -4
10 -1 13 9 9 7 -3 14 -9 14 -15 0 -5 8 -7 18 -4 9 3 40 -1 67 -9 49 -13 49
-14 15 -16 -32 -2 -33 -2 -6 -6 19 -3 34 2 47 16 11 12 32 21 47 21 23 0 29 6
40 40 6 22 12 46 12 54 0 29 -46 84 -89 107 -24 13 -58 32 -76 42 -19 10 -55
22 -82 27 -26 4 -79 18 -118 30 -38 12 -82 24 -96 27 -23 4 -30 15 -48 72 -26
83 -27 111 -3 111 10 0 90 71 178 158 217 214 469 442 490 442 2 0 4 -93 4
-207z m6500 -137 c0 -3 -4 -8 -10 -11 -5 -3 -10 -1 -10 4 0 6 5 11 10 11 6 0
10 -2 10 -4z m17 -18 c-3 -8 -6 -5 -6 6 -1 11 2 17 5 13 3 -3 4 -12 1 -19z
m-256 -61 c-10 -9 -11 -8 -5 6 3 10 9 15 12 12 3 -3 0 -11 -7 -18z m-321 -22
c0 -6 -11 -12 -25 -13 -24 -2 -32 7 -19 21 10 9 44 4 44 -8z m627 -7 c-3 -8
-6 -5 -6 6 -1 11 2 17 5 13 3 -3 4 -12 1 -19z m-725 -10 c-7 -7 -12 -8 -12 -2
0 14 12 26 19 19 2 -3 -1 -11 -7 -17z m188 12 c0 -5 -4 -10 -10 -10 -5 0 -10
5 -10 10 0 6 5 10 10 10 6 0 10 -4 10 -10z m740 -10 c0 -5 -12 -10 -26 -10
-14 0 -23 4 -19 10 3 6 15 10 26 10 10 0 19 -4 19 -10z m-62 -34 c15 5 15 4
-1 -6 -21 -14 -47 2 -47 28 0 13 4 11 15 -5 10 -14 22 -20 33 -17z m-938 -2
c0 -8 -4 -14 -10 -14 -5 0 -10 9 -10 21 0 11 5 17 10 14 6 -3 10 -13 10 -21z
m-46 -27 c-4 -24 -3 -28 5 -17 13 18 13 3 1 -25 -7 -16 -9 -16 -9 -4 -1 9 -9
20 -18 23 -12 5 -14 9 -5 18 7 7 12 20 12 31 0 10 4 15 10 12 5 -3 7 -20 4
-38z m86 21 c0 -13 -23 -5 -28 10 -2 7 2 10 12 6 9 -3 16 -11 16 -16z m980
-22 c0 -3 -4 -8 -10 -11 -5 -3 -10 -1 -10 4 0 6 5 11 10 11 6 0 10 -2 10 -4z
m-60 -56 c0 -5 -9 -10 -20 -10 -11 0 -20 5 -20 10 0 6 9 10 20 10 11 0 20 -4
20 -10z m55 1 c3 -5 1 -12 -5 -16 -5 -3 -10 1 -10 9 0 18 6 21 15 7z m50 -1
c3 -5 1 -10 -4 -10 -6 0 -11 5 -11 10 0 6 2 10 4 10 3 0 8 -4 11 -10z m-1108
-16 c-3 -3 -12 -4 -19 -1 -8 3 -5 6 6 6 11 1 17 -2 13 -5z m1003 -14 c0 -5 -4
-10 -10 -10 -5 0 -10 5 -10 10 0 6 5 10 10 10 6 0 10 -4 10 -10z m-1200 -40
c0 -5 -4 -10 -10 -10 -5 0 -10 5 -10 10 0 6 5 10 10 10 6 0 10 -4 10 -10z
m-130 -50 c0 -4 -7 -10 -15 -14 -10 -4 -15 1 -15 14 0 13 5 18 15 14 8 -4 15
-10 15 -14z m1620 -61 c0 -11 -4 -17 -10 -14 -5 3 -10 13 -10 21 0 8 5 14 10
14 6 0 10 -9 10 -21z m-1845 1 c3 -5 1 -10 -4 -10 -6 0 -11 5 -11 10 0 6 2 10
4 10 3 0 8 -4 11 -10z m1915 -16 c0 -2 -7 -4 -15 -4 -8 0 -15 4 -15 10 0 5 7
7 15 4 8 -4 15 -8 15 -10z m-3815 -14 c-16 -4 -48 -8 -70 -8 l-40 1 35 7 c19
4 51 7 70 8 l35 0 -30 -8z m3775 -10 c0 -5 -4 -10 -10 -10 -5 0 -10 5 -10 10
0 6 5 10 10 10 6 0 10 -4 10 -10z m77 -15 c10 -1 21 4 25 10 4 5 10 -5 14 -22
4 -18 10 -33 15 -33 5 0 9 -9 9 -19 0 -11 5 -23 10 -26 6 -3 10 -11 10 -17 0
-22 -27 13 -40 52 -13 40 -19 44 -52 41 -10 -1 -18 3 -18 9 0 6 -5 8 -10 5 -6
-4 -8 -9 -6 -13 2 -4 -10 -7 -27 -8 l-32 -1 33 14 c17 7 32 19 32 26 0 8 4 7
10 -3 5 -8 17 -15 27 -15z m-5271 -8 c1 -1 20 -37 43 -79 39 -75 40 -78 18
-78 -21 0 -81 65 -131 143 l-18 27 43 -5 c24 -3 44 -7 45 -8z m-2330 -47 c184
-59 229 -81 254 -122 22 -36 11 -65 -29 -75 -28 -7 -159 16 -168 30 -4 6 0 8
9 4 16 -6 48 21 48 40 0 6 -70 35 -155 64 -118 41 -155 58 -155 71 0 14 23 36
39 38 2 0 73 -22 157 -50z m5659 21 c3 -5 1 -12 -5 -16 -5 -3 -10 1 -10 9 0
18 6 21 15 7z m1946 -5 c5 3 9 -2 9 -10 0 -9 -6 -15 -12 -13 -7 1 -12 -6 -10
-15 2 -10 -2 -18 -8 -18 -5 0 -10 13 -10 28 0 30 12 51 18 33 2 -6 8 -9 13 -5z
m39 -46 c0 -5 -2 -10 -4 -10 -3 0 -8 5 -11 10 -3 6 -1 10 4 10 6 0 11 -4 11
-10z m-35 -30 c3 -5 -1 -10 -9 -10 -9 0 -16 5 -16 10 0 6 4 10 9 10 6 0 13 -4
16 -10z m83 -22 c4 2 8 -2 11 -9 2 -7 -1 -9 -8 -5 -7 5 -11 -1 -11 -13 0 -12
5 -21 11 -21 5 0 7 6 3 13 -4 6 0 5 9 -3 9 -8 23 -35 31 -60 13 -38 13 -42 0
-26 -7 11 -14 28 -14 37 0 22 -17 34 -23 17 -3 -10 -7 -10 -19 0 -13 10 -17
10 -21 0 -3 -10 -9 -9 -24 5 -11 9 -26 17 -33 17 -10 0 -11 3 -3 11 8 8 17 8
33 -1 29 -15 47 0 31 27 -6 10 -11 12 -11 6 0 -7 -4 -13 -9 -13 -4 0 -6 11 -3
25 4 25 5 25 24 8 11 -10 23 -17 26 -15z m-2068 -4 c0 -8 -5 -12 -10 -9 -6 4
-8 11 -5 16 9 14 15 11 15 -7z m-3277 -51 c-13 -2 -35 -2 -50 0 -16 2 -5 4 22
4 28 0 40 -2 28 -4z m-140 -10 c-18 -2 -48 -2 -65 0 -18 2 -4 4 32 4 36 0 50
-2 33 -4z m5385 -90 c20 -34 39 -60 44 -57 4 3 5 -1 2 -9 -3 -8 2 -21 10 -30
9 -9 16 -20 16 -26 0 -21 97 -191 105 -183 4 4 5 1 1 -5 -7 -13 61 -183 78
-195 6 -4 8 -8 4 -8 -4 0 2 -24 14 -52 52 -128 103 -261 138 -363 22 -60 62
-175 90 -255 91 -256 160 -504 186 -669 32 -202 33 -542 3 -761 -6 -47 -13
-88 -16 -92 -2 -4 -36 28 -74 72 -39 44 -75 80 -80 80 -24 0 -4 19 36 34 25
10 45 23 45 29 -1 7 -27 28 -58 48 l-57 35 -33 205 c-85 526 -346 1738 -422
1959 -5 14 -12 41 -16 60 -3 19 -11 41 -17 48 -5 7 -7 15 -4 18 3 3 -6 36 -19
72 -13 37 -23 85 -23 107 1 22 4 31 6 20 3 -11 21 -48 41 -82z m-2048 80 c0
-5 -5 -15 -10 -23 -8 -12 -10 -11 -10 8 0 12 5 22 10 22 6 0 10 -3 10 -7z
m-5605 -25 c14 -6 25 -17 25 -25 0 -7 5 -13 11 -13 5 0 8 4 5 9 -4 5 8 4 24
-2 26 -10 28 -13 13 -19 -16 -6 -15 -7 3 -7 30 -1 35 -10 18 -37 -9 -13 -12
-29 -8 -36 6 -10 3 -9 -9 1 -19 15 -22 8 -6 -20 5 -11 13 -18 17 -15 4 2 8 -8
9 -22 2 -33 94 -254 135 -327 6 -11 30 -56 52 -100 22 -44 43 -82 47 -85 3 -3
23 -34 43 -70 55 -95 146 -213 339 -442 22 -27 46 -48 53 -48 8 0 14 -7 14
-15 0 -16 39 -65 80 -99 13 -12 36 -33 49 -48 14 -16 37 -29 51 -29 18 -1 20
-3 7 -6 -15 -4 -16 -7 -6 -20 11 -12 14 -11 25 9 8 13 13 17 14 10 0 -7 5 -10
10 -7 6 3 10 1 10 -5 0 -7 -7 -10 -15 -6 -9 3 -15 0 -15 -10 0 -8 7 -22 15
-30 12 -12 15 -12 15 -2 0 10 3 9 10 -2 7 -11 10 -11 10 -2 0 7 5 10 10 7 6
-3 10 1 10 9 0 10 -6 13 -15 10 -10 -4 -15 0 -15 16 0 14 4 19 13 13 13 -8 18
-10 42 -12 8 0 14 -6 13 -13 -2 -7 10 -12 30 -13 17 -1 32 2 32 7 0 5 5 6 11
2 8 -5 8 -9 -1 -14 -7 -4 -9 -13 -6 -19 9 -14 1 -14 -23 1 -15 9 -23 9 -35 -1
-23 -19 -20 -33 5 -19 17 11 22 10 33 -4 7 -10 16 -15 19 -12 8 9 49 -35 42
-46 -4 -6 -1 -10 4 -10 6 0 11 5 11 10 0 6 5 10 10 10 7 0 7 -6 0 -20 -6 -12
-7 -20 -1 -20 5 0 11 6 13 12 3 7 22 -14 43 -46 38 -57 39 -59 20 -73 -19 -15
-19 -15 4 -10 29 7 51 -8 51 -35 0 -10 4 -17 8 -14 5 3 25 -15 46 -39 20 -25
34 -45 31 -45 -4 0 -39 21 -78 46 -447 289 -886 764 -1127 1219 -29 55 -61
114 -71 130 -32 55 -209 479 -209 502 0 5 9 3 35 -9z m7775 -5 c0 -5 -7 -17
-15 -27 -15 -20 -20 -10 -9 18 6 16 24 22 24 9z m-68 -25 c-9 -9 -15 -9 -24 0
-9 9 -7 12 12 12 19 0 21 -3 12 -12z m96 -44 c-4 -3 -12 5 -18 18 -12 22 -12
22 6 6 10 -10 15 -20 12 -24z m-2219 -25 c-16 -10 -23 -4 -14 10 3 6 11 8 17
5 6 -4 5 -9 -3 -15z m2231 -3 c0 -3 -4 -8 -10 -11 -5 -3 -10 -1 -10 4 0 6 5
11 10 11 6 0 10 -2 10 -4z m-7696 -21 c3 -8 1 -15 -4 -15 -6 0 -10 7 -10 15 0
8 2 15 4 15 2 0 6 -7 10 -15z m7696 -32 c-11 -17 -11 -17 -6 0 3 10 6 24 7 30
0 9 2 9 5 0 3 -7 0 -20 -6 -30z m-7470 7 c0 -5 -16 -10 -35 -10 -26 0 -35 -4
-35 -17 0 -9 -3 -13 -7 -9 -18 18 -6 31 32 37 22 3 41 7 43 7 1 1 2 -2 2 -8z
m7503 -10 c3 -12 1 -18 -5 -14 -7 5 -9 -5 -4 -28 3 -19 3 -45 -2 -58 -6 -16
-8 -5 -7 36 3 71 4 84 9 84 2 0 6 -9 9 -20z m-2276 -22 c-3 -7 -5 -2 -5 12 0
14 2 19 5 13 2 -7 2 -19 0 -25z m-5380 0 c-3 -8 -6 -5 -6 6 -1 11 2 17 5 13 3
-3 4 -12 1 -19z m133 -8 c0 -5 -5 -10 -11 -10 -5 0 -7 5 -4 10 3 6 8 10 11 10
2 0 4 -4 4 -10z m7551 -23 c-10 -9 -11 -8 -5 6 3 10 9 15 12 12 3 -3 0 -11 -7
-18z m-79 -9 c-7 -7 -12 -8 -12 -2 0 14 12 26 19 19 2 -3 -1 -11 -7 -17z m-8
-31 c7 -6 6 -7 -4 -4 -8 2 -16 12 -17 23 -2 13 -1 15 4 4 3 -8 11 -19 17 -23z
m-7067 1 c-3 -8 -6 -5 -6 6 -1 11 2 17 5 13 3 -3 4 -12 1 -19z m4828 -14 c-12
-24 -15 -25 -15 -8 0 11 5 25 12 32 18 18 20 8 3 -24z m2324 -4 c0 -10 -3 -8
-9 5 -12 27 -12 43 0 25 5 -8 9 -22 9 -30z m31 33 c0 -5 -5 -15 -10 -23 -7
-12 -9 -10 -7 8 1 19 17 33 17 15z m20 -58 c0 -5 -5 -3 -10 5 -5 8 -10 20 -10
25 0 6 5 3 10 -5 5 -8 10 -19 10 -25z m-7193 -7 c-3 -8 -6 -5 -6 6 -1 11 2 17
5 13 3 -3 4 -12 1 -19z m53 8 c0 -2 -7 -6 -15 -10 -8 -3 -15 -1 -15 4 0 6 7
10 15 10 8 0 15 -2 15 -4z m7159 -49 c0 -21 -1 -21 -9 -2 -12 28 -12 37 0 30
6 -3 10 -16 9 -28z m-3651 -49 c2 -18 -3 -30 -17 -37 -27 -15 -51 -4 -51 23 0
50 62 63 68 14z m-3598 -8 c-8 -5 -19 -10 -25 -10 -5 0 -3 5 5 10 8 5 20 10
25 10 6 0 3 -5 -5 -10z m4840 -14 c0 -3 -4 -8 -10 -11 -5 -3 -10 -1 -10 4 0 6
5 11 10 11 6 0 10 -2 10 -4z m2441 -13 c13 -16 12 -17 -3 -4 -10 7 -18 15 -18
17 0 8 8 3 21 -13z m-7311 -3 c0 -5 -4 -10 -10 -10 -5 0 -10 5 -10 10 0 6 5
10 10 10 6 0 10 -4 10 -10z m4900 -40 c0 -5 -4 -10 -10 -10 -5 0 -10 5 -10 10
0 6 5 10 10 10 6 0 10 -4 10 -10z m2431 -15 c5 3 6 -1 3 -10 -6 -14 -8 -14
-20 2 -7 10 -13 23 -13 28 0 6 4 2 10 -8 6 -9 14 -15 20 -12z m-7281 -1 c0 -8
-5 -12 -10 -9 -6 4 -8 11 -5 16 9 14 15 11 15 -7z m17 -16 c-3 -8 -6 -5 -6 6
-1 11 2 17 5 13 3 -3 4 -12 1 -19z m4810 -14 c-3 -3 -12 -4 -19 -1 -8 3 -5 6
6 6 11 1 17 -2 13 -5z m2540 -16 c-3 -8 -6 -5 -6 6 -1 11 2 17 5 13 3 -3 4
-12 1 -19z m-7378 -10 c0 -16 -2 -18 -6 -8 -3 8 -11 18 -17 22 -7 5 -4 8 7 8
11 0 17 -7 16 -22z m7375 -24 c3 -8 2 -12 -4 -9 -6 3 -10 10 -10 16 0 14 7 11
14 -7z m-6026 -94 c2 -17 -4 -29 -19 -38 -19 -12 -24 -11 -41 6 -17 16 -18 23
-8 41 17 32 64 25 68 -9z m-1794 -37 c14 -24 24 -43 21 -43 -7 0 -55 73 -55
84 0 12 2 9 34 -41z m7935 -14 c-16 -10 -23 -4 -14 10 3 6 11 8 17 5 6 -4 5
-9 -3 -15z m-2649 -34 c0 -8 -4 -15 -10 -15 -5 0 -10 7 -10 15 0 8 5 15 10 15
6 0 10 -7 10 -15z m2690 -1 c0 -2 -7 -4 -15 -4 -8 0 -15 4 -15 10 0 5 7 7 15
4 8 -4 15 -8 15 -10z m190 -179 c0 -8 -4 -15 -10 -15 -5 0 -10 7 -10 15 0 8 5
15 10 15 6 0 10 -7 10 -15z m-40 -11 c0 -8 -4 -12 -10 -9 -5 3 -10 10 -10 16
0 5 5 9 10 9 6 0 10 -7 10 -16z m37 -39 c0 -8 -4 -15 -8 -15 -11 0 -20 16 -12
24 11 11 20 7 20 -9z m43 -25 c0 -5 -2 -10 -4 -10 -3 0 -8 5 -11 10 -3 6 -1
10 4 10 6 0 11 -4 11 -10z m124 -195 c4 -13 2 -14 -14 -5 -23 13 -26 20 -6 20
8 0 16 -7 20 -15z m-69 -45 c3 -5 1 -10 -4 -10 -6 0 -11 5 -11 10 0 6 2 10 4
10 3 0 8 -4 11 -10z m-7492 -15 c-3 -9 -8 -14 -10 -11 -3 3 -2 9 2 15 9 16 15
13 8 -4z m7577 -4 c0 -5 -7 -11 -14 -14 -10 -4 -13 -1 -9 9 6 15 23 19 23 5z
m33 -46 c-3 -9 -8 -14 -10 -11 -3 3 -2 9 2 15 9 16 15 13 8 -4z m27 -45 c0 -5
-5 -10 -11 -10 -5 0 -7 5 -4 10 3 6 8 10 11 10 2 0 4 -4 4 -10z m-7577 -15
c-3 -9 -8 -14 -10 -11 -3 3 -2 9 2 15 9 16 15 13 8 -4z m-26 -42 c-3 -10 -5
-4 -5 12 0 17 2 24 5 18 2 -7 2 -21 0 -30z m-87 7 c0 -5 -2 -10 -4 -10 -3 0
-8 5 -11 10 -3 6 -1 10 4 10 6 0 11 -4 11 -10z m-20 -20 c0 -5 -7 -10 -15 -10
-8 0 -15 5 -15 10 0 6 7 10 15 10 8 0 15 -4 15 -10z m90 1 c0 -5 -7 -11 -15
-15 -15 -5 -20 5 -8 17 9 10 23 9 23 -2z m53 -7 c11 -11 -3 -24 -18 -18 -8 4
-12 10 -9 15 6 11 18 12 27 3z m54 -56 c-6 -4 -18 -8 -26 -8 -11 0 -10 4 4 13
11 9 15 19 11 28 -4 8 0 5 8 -5 13 -16 13 -22 3 -28z m63 -83 c11 -13 10 -14
-4 -9 -9 3 -16 10 -16 15 0 13 6 11 20 -6z m7558 -45 c-1 -35 -7 -34 -14 4 -2
14 0 26 5 26 5 0 9 -14 9 -30z m42 -50 c0 -5 -4 -10 -10 -10 -5 0 -10 5 -10
10 0 6 5 10 10 10 6 0 10 -4 10 -10z m70 -107 c-1 -24 -2 -26 -11 -10 -5 9 -7
22 -4 27 10 17 15 11 15 -17z m-30 10 c0 -5 -5 -15 -10 -23 -8 -12 -10 -11
-10 8 0 12 5 22 10 22 6 0 10 -3 10 -7z m-2360 -323 c13 -23 29 -150 20 -150
-3 0 -12 16 -20 35 -21 54 -42 69 -91 62 -23 -3 -45 -10 -48 -15 -10 -15 -51
-25 -51 -12 0 16 44 50 99 77 57 28 77 29 91 3z m1039 -70 c0 -13 -1 -13 -8 0
-5 8 -12 26 -15 40 l-7 25 15 -25 c9 -14 15 -32 15 -40z m-1289 -85 c-29 -30
-56 -53 -58 -51 -6 7 30 60 57 83 53 45 53 21 1 -32z m380 -67 l-45 -48 -9 35
c-12 51 -5 60 50 61 l49 1 -45 -49z m1336 -64 c24 -14 46 -30 49 -34 3 -4 -30
-25 -73 -45 -116 -56 -246 -135 -457 -277 -348 -234 -402 -275 -650 -497 -99
-88 -173 -147 -178 -142 -12 12 -11 74 1 98 18 34 91 93 122 99 20 4 27 11 23
21 -7 18 34 61 147 157 180 153 290 233 555 406 209 136 383 240 403 240 7 0
33 -12 58 -26z m-1686 -141 c-1 -22 -90 -94 -90 -73 0 6 4 10 9 10 5 0 11 11
15 23 6 27 66 63 66 40z m-1882 -128 c26 -14 43 -25 38 -25 -18 0 -76 24 -76
32 0 4 -6 5 -14 2 -8 -3 -17 -1 -21 5 -11 19 24 12 73 -14z m787 -109 c-11 -7
-42 -21 -68 -30 -108 -36 -172 -87 -202 -158 -8 -21 -16 -38 -18 -38 -1 0 -2
30 -1 67 1 63 3 68 35 95 41 34 167 77 229 78 41 0 43 -1 25 -14z m334 -227
c25 -1 25 -1 -4 -10 -16 -5 -63 -12 -102 -15 -62 -6 -73 -4 -73 9 0 21 24 27
94 21 32 -2 71 -4 85 -5z m-3364 -167 c-3 -3 -11 0 -18 7 -9 10 -8 11 6 5 10
-3 15 -9 12 -12z m32 -104 c-3 -8 -6 -5 -6 6 -1 11 2 17 5 13 3 -3 4 -12 1
-19z m4079 -76 c22 -15 76 -56 119 -92 43 -36 82 -64 87 -63 4 2 8 -2 8 -7 0
-19 24 -37 42 -32 10 2 18 -1 18 -8 0 -14 35 19 35 34 1 6 6 10 12 9 7 -2 21
9 33 24 24 31 38 23 21 -13 -16 -35 -102 -134 -117 -134 -6 0 -14 6 -17 14 -3
8 -67 69 -142 137 -125 112 -168 159 -148 159 4 0 26 -12 49 -28z m354 -126
c0 -2 -7 -7 -16 -10 -8 -3 -12 -2 -9 4 6 10 25 14 25 6z"/>
<path d="M770 6035 c-46 -21 -97 -70 -123 -120 -15 -31 -20 -58 -20 -117 0
-67 4 -83 30 -124 42 -69 66 -84 144 -86 65 -3 66 -3 137 51 83 63 114 120
116 211 1 47 -4 62 -31 102 -26 37 -44 51 -90 68 -78 30 -121 33 -163 15z
m128 -51 c23 -15 23 -16 6 -104 -5 -29 -34 -76 -63 -104 -31 -30 -111 -51 -95
-24 6 10 3 9 -10 -2 -16 -12 -20 -11 -36 10 -10 13 -24 41 -30 61 -12 35 -11
41 14 84 37 62 108 108 156 99 19 -3 45 -12 58 -20z"/>
<path d="M1622 3650 c0 -14 2 -19 5 -12 2 6 2 18 0 25 -3 6 -5 1 -5 -13z"/>
<path d="M1495 3590 c-4 -6 7 -10 27 -9 27 0 30 2 13 9 -27 12 -33 12 -40 0z"/>
<path d="M1580 3556 c0 -2 7 -7 16 -10 8 -3 12 -2 9 4 -6 10 -25 14 -25 6z"/>
<path d="M1592 3511 c-11 -7 -11 -9 0 -14 9 -3 15 1 15 9 0 8 -1 14 -1 14 -1
0 -7 -4 -14 -9z"/>
<path d="M1722 3500 c0 -14 2 -19 5 -12 2 6 2 18 0 25 -3 6 -5 1 -5 -13z"/>
<path d="M1645 3480 c-3 -5 -1 -10 4 -10 6 0 11 5 11 10 0 6 -2 10 -4 10 -3 0
-8 -4 -11 -10z"/>
<path d="M1600 3466 c0 -2 7 -7 16 -10 8 -3 12 -2 9 4 -6 10 -25 14 -25 6z"/>
<path d="M1670 3465 c0 -5 5 -17 10 -25 5 -8 10 -10 10 -5 0 6 -5 17 -10 25
-5 8 -10 11 -10 5z"/>
<path d="M1741 3444 c0 -11 3 -14 6 -6 3 7 2 16 -1 19 -3 4 -6 -2 -5 -13z"/>
<path d="M1711 3414 c0 -11 3 -14 6 -6 3 7 2 16 -1 19 -3 4 -6 -2 -5 -13z"/>
<path d="M1732 3380 c0 -19 2 -27 5 -17 2 9 2 25 0 35 -3 9 -5 1 -5 -18z"/>
<path d="M1140 3609 c0 -23 26 -31 40 -13 9 10 9 14 1 14 -6 0 -11 -5 -11 -12
0 -6 -7 -3 -15 8 -12 16 -14 17 -15 3z"/>
<path d="M2165 2140 c3 -5 8 -10 11 -10 2 0 4 5 4 10 0 6 -5 10 -11 10 -5 0
-7 -4 -4 -10z"/>
<path d="M2227 2109 c4 -13 8 -18 11 -10 2 7 -1 18 -6 23 -8 8 -9 4 -5 -13z"/>
<path d="M2200 2105 c0 -5 5 -17 10 -25 5 -8 10 -10 10 -5 0 6 -5 17 -10 25
-5 8 -10 11 -10 5z"/>
<path d="M2245 2070 c3 -5 8 -10 11 -10 2 0 4 5 4 10 0 6 -5 10 -11 10 -5 0
-7 -4 -4 -10z"/>
<path d="M2340 2029 c0 -6 -7 -9 -15 -5 -8 3 -15 2 -15 -3 0 -16 14 -21 27 -9
11 9 17 9 24 -3 10 -16 12 -8 3 15 -7 18 -24 22 -24 5z"/>
<path d="M2380 1985 c0 -15 18 -40 24 -34 3 3 -1 14 -9 25 -8 10 -14 15 -15 9z"/>
<path d="M2420 1910 c-13 -8 -12 -10 3 -10 9 0 17 5 17 10 0 12 -1 12 -20 0z"/>
<path d="M6741 9973 c8 -10 40 -47 70 -83 459 -539 761 -997 996 -1507 75
-162 125 -292 223 -578 33 -93 59 -162 59 -153 2 56 -196 624 -265 761 -10 20
45 -28 152 -133 93 -91 225 -215 294 -275 69 -60 127 -112 130 -115 3 -3 79
-68 169 -145 91 -77 221 -189 290 -250 69 -60 142 -123 161 -140 283 -246 625
-625 883 -979 69 -94 87 -113 87 -93 0 25 -56 105 -194 277 -263 328 -598 672
-941 966 -643 551 -739 637 -920 821 -146 148 -152 156 -215 280 -167 327
-443 742 -696 1049 -33 40 -90 109 -128 155 -104 127 -134 159 -153 159 -14 0
-14 -2 -2 -17z"/>
<path d="M5682 9905 c16 -30 31 -55 34 -55 7 0 -45 98 -55 104 -5 3 4 -19 21
-49z"/>
<path d="M5721 9836 c-1 -9 115 -203 132 -221 15 -16 -21 51 -59 111 -19 29
-34 58 -34 64 0 5 -4 10 -8 10 -5 0 -14 10 -20 23 -6 12 -11 18 -11 13z"/>
<path d="M5686 9662 c-3 -5 14 -26 36 -48 23 -21 36 -30 28 -19 -8 11 -25 28
-38 38 -12 10 -20 23 -17 28 4 5 4 9 1 9 -3 0 -7 -4 -10 -8z"/>
<path d="M5740 9656 c0 -2 7 -7 16 -10 8 -3 12 -2 9 4 -6 10 -25 14 -25 6z"/>
<path d="M5780 9636 c0 -3 9 -10 20 -16 11 -6 20 -8 20 -6 0 3 -9 10 -20 16
-11 6 -20 8 -20 6z"/>
<path d="M5830 9606 c0 -3 13 -12 30 -21 27 -14 29 -14 23 0 -3 9 -8 14 -11
11 -2 -3 -13 -1 -23 5 -11 5 -19 7 -19 5z"/>
<path d="M5310 9584 c0 -3 16 -12 35 -20 26 -10 73 -14 187 -12 l153 2 -160 5
c-100 4 -168 11 -182 19 -24 13 -33 15 -33 6z"/>
<path d="M5351 9463 c-1 -7 8 -28 19 -48 25 -45 25 -45 -4 -45 -33 0 -126 -22
-126 -30 0 -3 15 -12 34 -18 19 -7 48 -29 65 -48 17 -19 31 -31 31 -27 0 12
-52 68 -75 81 -29 16 -14 24 59 29 l65 6 -28 41 c-15 22 -31 48 -34 56 -3 9
-6 10 -6 3z"/>
<path d="M6040 9279 c23 -44 95 -203 161 -352 66 -150 129 -291 140 -314 10
-24 19 -45 19 -49 0 -3 21 -47 46 -97 50 -100 114 -249 114 -267 0 -6 -18 -1
-41 10 -23 12 -43 19 -46 16 -3 -3 15 -42 41 -87 25 -45 46 -86 46 -90 0 -12
-17 -11 -25 1 -11 17 -26 0 -51 -56 -13 -30 -28 -54 -33 -54 -5 0 -12 15 -15
34 -4 19 -15 45 -25 57 l-18 23 -16 -25 c-8 -13 -18 -40 -22 -59 -4 -19 -12
-38 -17 -41 -7 -4 -6 -9 1 -13 7 -4 17 16 28 54 9 33 21 59 27 57 6 -2 19 -27
30 -55 10 -29 22 -52 27 -52 5 0 20 23 35 52 16 31 29 47 33 39 4 -6 21 -15
37 -20 72 -23 134 -50 185 -83 73 -47 103 -62 95 -50 -8 14 -216 162 -226 162
-5 0 -23 24 -41 53 -80 130 -85 150 -23 101 62 -49 74 -57 81 -50 4 3 -1 12
-10 19 -9 6 -29 46 -45 87 -79 200 -513 1130 -527 1130 -3 0 13 -36 35 -81z"/>
<path d="M5324 9203 c-30 -41 -39 -62 -15 -33 23 27 44 60 38 60 -2 0 -12 -12
-23 -27z"/>
<path d="M5246 9092 c-19 -27 -56 -68 -81 -91 -25 -23 -45 -45 -45 -50 0 -16
133 -131 194 -169 l60 -37 -35 -6 -34 -6 37 -2 c48 -1 57 14 19 33 -34 18
-163 120 -204 161 l-27 28 58 61 c56 59 108 126 99 126 -3 0 -21 -22 -41 -48z"/>
<path d="M5240 8735 c15 -18 88 -61 120 -69 14 -4 -1 7 -32 25 -61 34 -69 45
-40 52 9 3 0 5 -22 6 -33 1 -37 -1 -26 -14z"/>
<path d="M5354 8565 c-20 -49 -54 -182 -53 -209 0 -12 11 20 24 69 12 50 30
108 39 129 9 22 14 41 11 44 -2 3 -12 -12 -21 -33z"/>
<path d="M5435 8390 c-18 -8 -17 -9 8 -9 15 -1 27 4 27 9 0 12 -8 12 -35 0z"/>
<path d="M5521 8304 c0 -11 3 -14 6 -6 3 7 2 16 -1 19 -3 4 -6 -2 -5 -13z"/>
<path d="M5550 8204 c0 -15 54 -96 78 -118 12 -10 19 -23 16 -27 -3 -5 -1 -9
5 -9 5 0 13 -10 17 -22 4 -13 17 -46 30 -74 13 -28 26 -70 30 -93 8 -51 13
-47 72 52 l40 68 22 -31 c23 -32 50 -40 50 -15 0 18 8 18 40 0 14 -8 35 -14
47 -15 29 0 66 -47 94 -120 13 -33 29 -60 36 -60 32 0 111 169 119 253 4 48 3
46 -16 -27 -19 -75 -84 -216 -100 -216 -4 0 -17 27 -29 60 -23 64 -79 130
-109 130 -9 0 -32 9 -50 20 -40 25 -42 25 -42 0 0 -26 -8 -25 -32 5 -11 14
-23 25 -28 25 -4 0 -27 -32 -51 -71 l-43 -72 -12 34 c-7 19 -13 44 -13 57 -1
27 -71 151 -97 173 -10 8 -30 34 -46 58 -15 25 -28 40 -28 35z"/>
<path d="M5248 8125 c36 -34 36 -34 12 -35 -37 0 -100 -20 -100 -30 0 -6 13
-10 28 -10 38 0 117 -28 169 -59 36 -22 41 -29 36 -52 -4 -23 0 -30 25 -43 35
-18 82 -21 82 -6 0 6 -9 10 -21 10 -11 0 -17 4 -14 10 3 5 0 7 -9 4 -8 -3 -24
0 -35 6 -19 10 -20 13 -6 26 8 9 15 17 15 20 0 8 -87 59 -138 80 l-53 22 35 6
c20 4 36 11 36 16 0 11 -78 70 -91 70 -5 0 8 -16 29 -35z"/>
<path d="M443 7595 c0 -8 4 -12 9 -9 5 3 6 10 3 15 -9 13 -12 11 -12 -6z"/>
<path d="M390 7390 c-19 -11 -30 -19 -25 -19 6 0 26 8 45 19 19 11 31 19 25
19 -5 0 -26 -8 -45 -19z"/>
<path d="M284 7318 l-19 -23 23 19 c12 11 22 21 22 23 0 8 -8 2 -26 -19z"/>
<path d="M219 7263 c-13 -16 -12 -17 4 -4 16 13 21 21 13 21 -2 0 -10 -8 -17
-17z"/>
<path d="M185 7219 c-2 -3 42 -5 98 -5 73 0 92 2 67 8 -38 8 -160 7 -165 -3z"/>
<path d="M317 7158 c2 -5 15 -8 29 -8 16 0 23 -4 18 -11 -4 -8 -1 -8 12 -1 11
5 26 12 34 14 8 3 -10 7 -42 9 -31 2 -54 1 -51 -3z"/>
<path d="M310 7068 c-19 -29 -51 -92 -72 -139 -32 -75 -44 -112 -74 -234 -4
-18 -3 -18 8 -5 7 9 28 22 46 29 18 8 31 16 29 18 -3 2 -16 -2 -31 -8 -14 -7
-28 -10 -31 -7 -17 17 98 294 152 366 13 17 20 32 16 32 -5 0 -24 -24 -43 -52z"/>
<path d="M6140 6990 c6 -11 13 -20 16 -20 2 0 0 9 -6 20 -6 11 -13 20 -16 20
-2 0 0 -9 6 -20z"/>
<path d="M6197 6885 c9 -19 18 -33 21 -31 4 5 -26 66 -33 66 -3 0 3 -16 12
-35z"/>
<path d="M6230 6824 c0 -6 7 -19 16 -30 14 -18 14 -18 3 6 -14 31 -19 36 -19
24z"/>
<path d="M342 6748 c-12 -18 -32 -44 -46 -57 -30 -28 -33 -41 -10 -41 8 0 12
5 9 10 -3 6 1 17 10 26 29 30 68 85 63 90 -3 3 -15 -10 -26 -28z"/>
<path d="M6261 6765 c0 -5 6 -21 14 -35 8 -14 14 -20 14 -15 0 6 -6 21 -14 35
-8 14 -14 21 -14 15z"/>
<path d="M275 6750 c-13 -6 -15 -9 -5 -9 8 0 22 4 30 9 18 12 2 12 -25 0z"/>
<path d="M8450 6727 c-1 -38 199 -355 368 -582 206 -276 511 -589 645 -663 23
-13 31 -15 17 -5 -106 78 -327 299 -472 473 -180 217 -397 519 -525 732 -18
29 -32 49 -33 45z"/>
<path d="M6294 6690 c9 -32 39 -101 43 -97 2 3 -8 29 -22 58 -14 30 -23 47
-21 39z"/>
<path d="M412 6643 c-6 -2 -10 -8 -8 -12 2 -3 -2 -30 -9 -58 -27 -105 -31
-401 -5 -391 4 2 26 27 49 55 23 29 52 55 66 59 14 3 25 10 25 15 0 21 -25 6
-76 -46 -31 -30 -57 -55 -60 -55 -2 0 -4 57 -4 128 0 113 19 276 35 302 7 11
6 11 -13 3z"/>
<path d="M521 6274 c-1 -15 30 -106 35 -101 2 2 -5 28 -15 58 -11 30 -20 49
-20 43z"/>
<path d="M157 6239 c7 -9 10 -19 6 -22 -3 -4 -1 -7 5 -7 17 0 15 16 -5 31 -16
12 -17 12 -6 -2z"/>
<path d="M130 6231 c0 -6 4 -13 10 -16 6 -3 7 1 4 9 -7 18 -14 21 -14 7z"/>
<path d="M2920 5774 c0 -10 5 -26 10 -34 8 -11 9 -7 4 15 -8 37 -14 45 -14 19z"/>
<path d="M9530 5436 c0 -3 9 -10 20 -16 11 -6 20 -8 20 -6 0 3 -9 10 -20 16
-11 6 -20 8 -20 6z"/>
<path d="M9647 5359 c12 -15 73 -53 73 -46 0 2 -19 17 -42 32 -24 16 -38 22
-31 14z"/>
<path d="M9082 5315 c12 -14 23 -25 25 -25 2 0 -4 11 -13 25 -9 14 -20 25 -25
25 -5 0 1 -11 13 -25z"/>
<path d="M9730 5305 c0 -2 24 -20 53 -38 185 -120 207 -132 207 -119 0 4 -19
18 -42 30 -24 12 -74 42 -113 67 -94 60 -105 67 -105 60z"/>
<path d="M9181 5198 c41 -45 214 -222 385 -393 172 -170 337 -338 368 -372 35
-39 56 -56 56 -46 0 9 -175 191 -388 403 -213 212 -409 409 -434 438 -25 28
-49 52 -53 52 -4 0 26 -37 66 -82z"/>
<path d="M8092 4530 c0 -14 2 -19 5 -12 2 6 2 18 0 25 -3 6 -5 1 -5 -13z"/>
<path d="M8122 4530 c0 -14 2 -19 5 -12 2 6 2 18 0 25 -3 6 -5 1 -5 -13z"/>
<path d="M8241 4534 c0 -11 3 -14 6 -6 3 7 2 16 -1 19 -3 4 -6 -2 -5 -13z"/>
<path d="M8151 4494 c0 -11 3 -14 6 -6 3 7 2 16 -1 19 -3 4 -6 -2 -5 -13z"/>
<path d="M7735 4490 c-3 -5 1 -10 9 -10 9 0 16 5 16 10 0 6 -4 10 -9 10 -6 0
-13 -4 -16 -10z"/>
<path d="M8270 4470 c-9 -6 -10 -10 -3 -10 6 0 15 5 18 10 8 12 4 12 -15 0z"/>
<path d="M8130 4460 c0 -5 5 -10 11 -10 5 0 7 5 4 10 -3 6 -8 10 -11 10 -2 0
-4 -4 -4 -10z"/>
<path d="M8231 4436 c-7 -8 -8 -17 -3 -20 6 -3 13 1 16 10 9 23 2 28 -13 10z"/>
<path d="M7640 4400 c0 -5 5 -10 11 -10 5 0 7 5 4 10 -3 6 -8 10 -11 10 -2 0
-4 -4 -4 -10z"/>
<path d="M7512 4350 c0 -14 2 -19 5 -12 2 6 2 18 0 25 -3 6 -5 1 -5 -13z"/>
<path d="M7416 4315 c-3 -9 -6 -22 -5 -28 0 -7 5 -1 10 12 5 13 8 26 5 28 -2
2 -6 -3 -10 -12z"/>
<path d="M7235 4309 c-4 -6 -5 -12 -2 -15 2 -3 7 2 10 11 7 17 1 20 -8 4z"/>
<path d="M7261 4294 c0 -11 3 -14 6 -6 3 7 2 16 -1 19 -3 4 -6 -2 -5 -13z"/>
<path d="M7205 4280 c-3 -5 -1 -10 4 -10 6 0 11 5 11 10 0 6 -2 10 -4 10 -3 0
-8 -4 -11 -10z"/>
<path d="M7257 4263 c-4 -3 -7 -13 -7 -22 1 -13 3 -13 11 2 11 19 8 33 -4 20z"/>
<path d="M7180 4251 c0 -5 10 -11 22 -13 14 -2 24 -12 28 -28 4 -17 8 -21 14
-12 4 7 3 18 -2 25 -6 7 -11 17 -11 22 -1 13 -51 19 -51 6z"/>
<path d="M8540 4249 c0 -5 5 -7 10 -4 6 3 10 8 10 11 0 2 -4 4 -10 4 -5 0 -10
-5 -10 -11z"/>
<path d="M8522 4220 c0 -19 2 -27 5 -17 2 9 2 25 0 35 -3 9 -5 1 -5 -18z"/>
<path d="M6955 4229 c-4 -6 -5 -12 -2 -15 2 -3 7 2 10 11 7 17 1 20 -8 4z"/>
<path d="M7008 4183 c7 -3 16 -2 19 1 4 3 -2 6 -13 5 -11 0 -14 -3 -6 -6z"/>
<path d="M7261 4174 c0 -11 3 -14 6 -6 3 7 2 16 -1 19 -3 4 -6 -2 -5 -13z"/>
<path d="M8645 4120 c-3 -5 -1 -10 4 -10 6 0 11 5 11 10 0 6 -2 10 -4 10 -3 0
-8 -4 -11 -10z"/>
<path d="M6934 4095 c-4 -8 -13 -15 -22 -15 -8 0 -12 -3 -9 -7 8 -8 57 17 57
29 0 14 -20 9 -26 -7z"/>
<path d="M8677 4091 c-3 -12 1 -22 10 -25 13 -5 13 -9 2 -23 -12 -14 -12 -16
1 -11 8 2 16 14 16 26 1 12 -3 19 -9 15 -6 -4 -8 0 -4 10 3 9 2 19 -2 22 -5 2
-11 -4 -14 -14z"/>
<path d="M8617 4080 c3 -11 7 -20 9 -20 2 0 4 9 4 20 0 11 -4 20 -9 20 -5 0
-7 -9 -4 -20z"/>
<path d="M8652 4075 c-9 -20 -9 -25 2 -25 8 0 14 11 14 25 0 14 -1 25 -3 25
-1 0 -7 -11 -13 -25z"/>
<path d="M6718 4000 c-3 -17 -1 -33 4 -36 4 -3 8 11 8 30 0 44 -6 47 -12 6z"/>
<path d="M8640 4019 c0 -5 5 -7 10 -4 6 3 10 8 10 11 0 2 -4 4 -10 4 -5 0 -10
-5 -10 -11z"/>
<path d="M6742 3970 c0 -14 2 -19 5 -12 2 6 2 18 0 25 -3 6 -5 1 -5 -13z"/>
<path d="M6705 3890 c3 -5 8 -10 11 -10 2 0 4 5 4 10 0 6 -5 10 -11 10 -5 0
-7 -4 -4 -10z"/>
<path d="M8870 3863 c0 -4 5 -15 10 -23 8 -13 10 -13 10 2 0 9 -4 20 -10 23
-5 3 -10 3 -10 -2z"/>
<path d="M8974 3668 c-4 -6 -3 -8 4 -4 5 3 13 0 15 -6 3 -8 6 -6 6 5 1 19 -14
23 -25 5z"/>
<path d="M4721 3614 c0 -11 3 -14 6 -6 3 7 2 16 -1 19 -3 4 -6 -2 -5 -13z"/>
<path d="M8996 3586 c-4 -15 -2 -34 4 -44 9 -14 10 -13 4 7 -3 13 -1 26 4 30
6 4 7 12 3 20 -6 9 -10 5 -15 -13z"/>
<path d="M9050 3600 c0 -5 5 -10 11 -10 5 0 7 5 4 10 -3 6 -8 10 -11 10 -2 0
-4 -4 -4 -10z"/>
<path d="M9020 3529 c0 -22 4 -39 9 -39 4 0 7 14 5 31 -3 26 -1 29 16 24 11
-4 20 -2 20 3 0 5 -11 12 -25 14 -23 5 -25 2 -25 -33z"/>
<path d="M1866 3513 c-6 -14 -5 -15 5 -6 7 7 10 15 7 18 -3 3 -9 -2 -12 -12z"/>
<path d="M1870 3471 c0 -6 5 -13 10 -16 6 -3 10 1 10 9 0 9 -4 16 -10 16 -5 0
-10 -4 -10 -9z"/>
<path d="M1850 3440 c0 -5 5 -10 11 -10 5 0 7 5 4 10 -3 6 -8 10 -11 10 -2 0
-4 -4 -4 -10z"/>
<path d="M9130 3371 c0 -11 5 -23 10 -26 6 -3 10 3 10 14 0 11 -4 23 -10 26
-5 3 -10 -3 -10 -14z"/>
<path d="M4459 3306 c27 -29 33 -32 25 -13 -2 7 -14 19 -27 26 -21 13 -21 12
2 -13z"/>
<path d="M6570 3241 c0 -11 -3 -28 -7 -38 -6 -16 -5 -16 10 -4 18 14 23 61 7
61 -5 0 -10 -9 -10 -19z"/>
<path d="M9368 3193 c7 -3 16 -2 19 1 4 3 -2 6 -13 5 -11 0 -14 -3 -6 -6z"/>
<path d="M6547 3133 c-4 -3 -7 -11 -7 -17 0 -6 5 -5 12 2 6 6 9 14 7 17 -3 3
-9 2 -12 -2z"/>
<path d="M9346 3101 c-7 -10 22 -37 30 -28 4 3 -1 13 -9 22 -9 8 -18 11 -21 6z"/>
<path d="M9190 3078 c0 -9 5 -20 10 -23 13 -8 13 5 0 25 -8 13 -10 13 -10 -2z"/>
<path d="M9448 2873 c6 -2 18 -2 25 0 6 3 1 5 -13 5 -14 0 -19 -2 -12 -5z"/>
<path d="M9585 2830 c3 -5 8 -10 11 -10 2 0 4 5 4 10 0 6 -5 10 -11 10 -5 0
-7 -4 -4 -10z"/>
<path d="M961 2793 c0 -12 -4 -30 -7 -40 -5 -17 -5 -17 6 0 6 10 9 28 7 40 -4
22 -4 22 -6 0z"/>
<path d="M841 2784 c0 -11 3 -14 6 -6 3 7 2 16 -1 19 -3 4 -6 -2 -5 -13z"/>
<path d="M9640 2699 c0 -5 5 -7 10 -4 6 3 10 8 10 11 0 2 -4 4 -10 4 -5 0 -10
-5 -10 -11z"/>
<path d="M9640 2666 c0 -15 47 -42 57 -33 3 4 1 7 -5 7 -7 0 -12 6 -12 14 0 7
-9 16 -20 19 -12 3 -20 0 -20 -7z"/>
<path d="M995 2640 c3 -5 8 -10 11 -10 2 0 4 5 4 10 0 6 -5 10 -11 10 -5 0 -7
-4 -4 -10z"/>
<path d="M3604 2613 c-107 -97 -172 -127 -257 -119 -28 2 -56 1 -62 -4 -6 -5
-27 0 -48 10 l-37 18 22 -27 c39 -48 173 -50 313 -5 57 19 77 32 72 48 -2 6 2
30 9 53 7 24 12 43 10 43 -1 0 -11 -8 -22 -17z"/>
<path d="M9643 2604 c2 -20 8 -28 25 -29 12 -1 22 4 22 12 0 7 -5 12 -12 11
-7 -2 -12 3 -13 11 0 8 -5 16 -12 18 -8 3 -11 -6 -10 -23z"/>
<path d="M9700 2545 c0 -8 5 -15 10 -15 6 0 10 7 10 15 0 8 -4 15 -10 15 -5 0
-10 -7 -10 -15z"/>
<path d="M9751 2544 c0 -11 3 -14 6 -6 3 7 2 16 -1 19 -3 4 -6 -2 -5 -13z"/>
<path d="M6615 2400 c3 -5 10 -10 16 -10 5 0 9 5 9 10 0 6 -7 10 -16 10 -8 0
-12 -4 -9 -10z"/>
<path d="M1692 2365 c0 -16 2 -22 5 -12 2 9 2 23 0 30 -3 6 -5 -1 -5 -18z"/>
<path d="M2977 2343 c-4 -3 -7 -17 -7 -30 0 -20 5 -24 23 -21 30 4 39 58 9 58
-10 0 -22 -3 -25 -7z"/>
<path d="M9877 2244 c-8 -8 3 -34 14 -34 5 0 9 9 9 20 0 19 -11 26 -23 14z"/>
<path d="M9920 2210 c0 -11 4 -20 9 -20 5 0 7 9 4 20 -3 11 -7 20 -9 20 -2 0
-4 -9 -4 -20z"/>
<path d="M1557 2059 c4 -13 8 -18 11 -10 2 7 -1 18 -6 23 -8 8 -9 4 -5 -13z"/>
<path d="M1586 1987 c3 -10 9 -15 12 -12 3 3 0 11 -7 18 -10 9 -11 8 -5 -6z"/>
<path d="M4707 1874 c-22 -29 -16 -43 10 -23 15 12 16 12 10 -5 -6 -16 -5 -17
7 -7 8 7 20 10 26 6 13 -8 13 5 0 25 -8 13 -10 13 -10 1 0 -12 -3 -12 -12 -3
-10 10 -10 15 2 22 13 9 13 10 0 10 -8 -1 -23 -12 -33 -26z"/>
<path d="M4790 1859 c0 -5 5 -7 10 -4 6 3 10 8 10 11 0 2 -4 4 -10 4 -5 0 -10
-5 -10 -11z"/>
<path d="M4644 1809 c-16 -17 -46 -42 -67 -56 -22 -13 -36 -27 -33 -30 3 -3
12 0 21 7 8 7 15 10 15 7 0 -2 17 11 38 30 41 38 77 56 95 47 7 -3 3 2 -7 10
-26 21 -28 21 -62 -15z"/>
<path d="M4888 1833 c6 -2 18 -2 25 0 6 3 1 5 -13 5 -14 0 -19 -2 -12 -5z"/>
<path d="M4948 1823 c12 -2 32 -2 45 0 12 2 2 4 -23 4 -25 0 -35 -2 -22 -4z"/>
<path d="M5070 1824 c0 -11 59 -95 75 -106 5 -4 13 -8 18 -8 9 0 47 61 47 75
-1 6 -10 -7 -21 -27 -11 -21 -24 -38 -29 -38 -5 0 -27 25 -49 57 -23 31 -41
52 -41 47z"/>
<path d="M5028 1813 c7 -3 16 -2 19 1 4 3 -2 6 -13 5 -11 0 -14 -3 -6 -6z"/>
<path d="M5250 1785 c8 -11 18 -22 21 -25 3 -3 13 -16 22 -30 10 -15 17 -19
17 -10 0 17 -25 49 -55 70 -19 14 -19 14 -5 -5z"/>
<path d="M4655 1779 c-4 -6 -5 -12 -2 -15 2 -3 7 2 10 11 7 17 1 20 -8 4z"/>
<path d="M4620 1750 c-9 -6 -10 -10 -3 -10 6 0 15 5 18 10 8 12 4 12 -15 0z"/>
<path d="M4530 1710 c-19 -4 -27 -8 -17 -9 9 0 17 -6 17 -12 0 -5 -4 -8 -9 -5
-5 4 -7 -4 -3 -16 4 -15 7 -18 10 -8 2 8 16 25 30 37 28 24 27 25 -28 13z"/>
<path d="M5311 1650 c-1 -30 -10 -75 -21 -100 -20 -45 -20 -45 0 -22 31 37 44
93 32 138 l-10 39 -1 -55z"/>
<path d="M4550 1601 c0 -6 4 -13 10 -16 6 -3 7 1 4 9 -7 18 -14 21 -14 7z"/>
<path d="M2502 1290 c0 -14 2 -19 5 -12 2 6 2 18 0 25 -3 6 -5 1 -5 -13z"/>
<path d="M6755 1140 c-3 -6 1 -7 9 -4 18 7 21 14 7 14 -6 0 -13 -4 -16 -10z"/>
<path d="M6960 850 c-9 -6 -10 -10 -3 -10 6 0 15 5 18 10 8 12 4 12 -15 0z"/>
<path d="M6790 650 c-6 -12 -9 -24 -7 -27 3 -2 11 5 17 17 6 12 9 24 7 27 -3
2 -11 -5 -17 -17z"/>
<path d="M3071 534 c0 -11 3 -14 6 -6 3 7 2 16 -1 19 -3 4 -6 -2 -5 -13z"/>
<path d="M3121 514 c0 -11 3 -14 6 -6 3 7 2 16 -1 19 -3 4 -6 -2 -5 -13z"/>
<path d="M3190 521 c0 -5 5 -13 10 -16 6 -3 10 -2 10 4 0 5 -4 13 -10 16 -5 3
-10 2 -10 -4z"/>
<path d="M3281 354 c0 -11 3 -14 6 -6 3 7 2 16 -1 19 -3 4 -6 -2 -5 -13z"/>
<path d="M2911 244 c0 -11 3 -14 6 -6 3 7 2 16 -1 19 -3 4 -6 -2 -5 -13z"/>
<path d="M2895 128 c-4 -46 -5 -95 -3 -108 2 -14 7 22 11 79 5 57 6 105 3 108
-2 2 -7 -33 -11 -79z"/>
<path d="M4361 165 c1 -19 18 -51 18 -35 0 8 -4 22 -9 30 -5 8 -9 11 -9 5z"/>
<path d="M3520 144 c0 -8 5 -12 10 -9 6 4 8 11 5 16 -9 14 -15 11 -15 -7z"/>
<path d="M4380 104 c0 -14 39 -104 45 -104 5 0 -4 24 -29 80 -8 19 -15 30 -16
24z"/>
<path d="M3550 91 c0 -6 5 -13 10 -16 6 -3 10 1 10 9 0 9 -4 16 -10 16 -5 0
-10 -4 -10 -9z"/>
</g>
</svg>
